<?xml version="1.0" encoding="UTF-8" standalone="no"?>
<svg
   xmlns:dc="http://purl.org/dc/elements/1.1/"
   xmlns:cc="http://creativecommons.org/ns#"
   xmlns:rdf="http://www.w3.org/1999/02/22-rdf-syntax-ns#"
   xmlns:svg="http://www.w3.org/2000/svg"
   xmlns="http://www.w3.org/2000/svg"
   xmlns:sodipodi="http://sodipodi.sourceforge.net/DTD/sodipodi-0.dtd"
   xmlns:inkscape="http://www.inkscape.org/namespaces/inkscape"
   width="453.10968mm"
   height="90.062561mm"
   viewBox="0 0 453.10969 90.062556"
   version="1.1"
   id="svg1767"
   inkscape:version="1.0 (4035a4fb49, 2020-05-01)"
   sodipodi:docname="book unlock -ve.svg">
  <defs
     id="defs1761" />
  <sodipodi:namedview
     id="base"
     pagecolor="#ffffff"
     bordercolor="#666666"
     borderopacity="1.0"
     inkscape:pageopacity="0.0"
     inkscape:pageshadow="2"
     inkscape:zoom="0.35"
     inkscape:cx="400"
     inkscape:cy="560"
     inkscape:document-units="mm"
     inkscape:current-layer="layer1"
     inkscape:document-rotation="0"
     showgrid="false"
     fit-margin-top="0"
     fit-margin-left="0"
     fit-margin-right="0"
     fit-margin-bottom="0"
     scale-x="1"
     showborder="true" />
  <metadata
     id="metadata1764">
    <rdf:RDF>
      <cc:Work
         rdf:about="">
        <dc:format>image/svg+xml</dc:format>
        <dc:type
           rdf:resource="http://purl.org/dc/dcmitype/StillImage" />
        <dc:title></dc:title>
      </cc:Work>
    </rdf:RDF>
  </metadata>
  <g
     inkscape:label="Layer 1"
     inkscape:groupmode="layer"
     id="layer1"
     transform="translate(188.31488,-86.565308)">
    <rect
       inkscape:export-ydpi="300.10269"
       inkscape:export-xdpi="300.10269"
       inkscape:export-filename="C:\Users\aravi\Desktop\path968.png"
       y="86.565308"
       x="-188.31488"
       height="90.062561"
       width="453.10968"
       id="rect913"
       style="fill:#33364d;fill-opacity:1;stroke-width:2.64583;stop-color:#000000" />
    <path
       sodipodi:nodetypes="ccccccccc"
       inkscape:export-ydpi="300.10269"
       inkscape:export-xdpi="300.10269"
       inkscape:export-filename="C:\Users\aravi\Desktop\path968.png"
       d="m -118.66636,89.881788 v 14.141842 h 24.174348 v 61.59406 h 16.583441 v -61.59406 h 21.346499 l 5.144894,-14.141842 z"
       style="font-style:normal;font-variant:normal;font-weight:bold;font-stretch:normal;font-size:20.5674px;line-height:1.25;font-family:Dubai;-inkscape-font-specification:'Dubai, Bold';font-variant-ligatures:normal;font-variant-caps:normal;font-variant-numeric:normal;font-feature-settings:normal;text-align:start;letter-spacing:0px;word-spacing:0px;writing-mode:lr-tb;text-anchor:start;fill:#ffffff;fill-opacity:1;stroke:none;stroke-width:1.77825"
       id="path915" />
    <path
       sodipodi:nodetypes="ccccccccccccccc"
       inkscape:export-ydpi="300.10269"
       inkscape:export-xdpi="300.10269"
       inkscape:export-filename="C:\Users\aravi\Desktop\path968.png"
       d="M -26.37113,89.881393 0.83948101,164.68234 1.2034238,165.61735 H -16.794873 l -6.072736,-18.11586 h -28.028102 l -5.955967,18.11586 h -17.774587 l 0.373807,-0.93501 27.210601,-74.800947 z m -20.086801,44.296177 h 19.152532 l -9.693052,-28.86849 z"
       style="font-style:normal;font-variant:normal;font-weight:bold;font-stretch:normal;font-size:20.5674px;line-height:1.25;font-family:Dubai;-inkscape-font-specification:'Dubai, Bold';font-variant-ligatures:normal;font-variant-caps:normal;font-variant-numeric:normal;font-feature-settings:normal;text-align:start;letter-spacing:0px;word-spacing:0px;writing-mode:lr-tb;text-anchor:start;fill:#ffffff;fill-opacity:1;stroke:none;stroke-width:1.77825"
       id="path917"
       inkscape:connector-curvature="0" />
    <path
       sodipodi:nodetypes="sccccsccccccsccssscsccscscs"
       inkscape:export-ydpi="300.10269"
       inkscape:export-xdpi="300.10269"
       inkscape:export-filename="C:\Users\aravi\Desktop\path968.png"
       d="m 24.83231,88.244714 c -7.084875,0 -13.546591,1.441539 -19.3857883,4.324488 -5.76134581,2.805036 -10.3938009,7.168916 -13.8973036,13.090638 -1.8454971,3.07828 -3.1991011,6.56072 -4.0724671,10.4389 l 17.0144385,46.77209 c 5.4561789,2.92112 11.9636855,4.38308 19.5240955,4.38308 1.634956,0 2.841716,-0.0392 3.620247,-0.11723 l 7.03773,4.85942 h 29.952787 l -1.138376,-0.65212 -19.035393,-9.70016 c 5.449938,-3.35046 9.810323,-7.86968 13.080244,-13.55765 3.269963,-5.76593 4.904787,-12.46748 4.904787,-20.1034 0,-7.86969 -1.440396,-14.76502 -4.321045,-20.68675 -2.802808,-5.99967 -7.04639,-10.675059 -12.729849,-14.025512 -5.605614,-3.350456 -12.457083,-5.02585 -20.554107,-5.02585 z m 0,13.557656 c 6.695606,0 11.795403,2.33769 15.298915,7.01275 3.50352,4.59714 5.255192,11.0256 5.255192,19.28487 0,5.22049 -0.817007,9.77897 -2.451989,13.67484 -1.557113,3.81795 -3.970536,6.77869 -7.240501,8.88248 -3.192077,2.02584 -7.085156,3.03894 -11.678642,3.03894 -6.773457,0 -11.911634,-2.29927 -15.415156,-6.89642 -3.5035199,-4.67505 -5.2560273,-11.14192 -5.2560273,-19.40118 0,-7.94762 1.8301222,-14.18063 5.4893463,-18.69984 3.659216,-4.59715 8.991857,-6.89644 15.998862,-6.89644 z"
       style="font-style:normal;font-variant:normal;font-weight:bold;font-stretch:normal;font-size:20.5674px;line-height:1.25;font-family:Dubai;-inkscape-font-specification:'Dubai, Bold';font-variant-ligatures:normal;font-variant-caps:normal;font-variant-numeric:normal;font-feature-settings:normal;text-align:start;letter-spacing:0px;word-spacing:0px;writing-mode:lr-tb;text-anchor:start;fill:#f9f9f9;fill-opacity:1;stroke:none;stroke-width:1.77825"
       id="path919" />
    <path
       inkscape:export-ydpi="300.10269"
       inkscape:export-xdpi="300.10269"
       inkscape:export-filename="C:\Users\aravi\Desktop\path968.png"
       sodipodi:nodetypes="ccccccccccc"
       d="m 46.862355,89.881788 c 5.519737,3.565019 9.737587,8.255579 12.724793,14.141842 H 91.21269 l -35.854461,53.64643 v 7.94763 H 113.15684 V 151.47501 H 76.731709 L 113.15684,97.829412 v -7.947624 z"
       style="font-style:normal;font-variant:normal;font-weight:bold;font-stretch:normal;font-size:20.5674px;line-height:1.25;font-family:Dubai;-inkscape-font-specification:'Dubai, Bold';font-variant-ligatures:normal;font-variant-caps:normal;font-variant-numeric:normal;font-feature-settings:normal;text-align:start;letter-spacing:0px;word-spacing:0px;writing-mode:lr-tb;text-anchor:start;fill:#f9f9f9;fill-opacity:1;stroke:none;stroke-width:1.77825"
       id="path921" />
    <path
       inkscape:export-ydpi="300.10269"
       inkscape:export-xdpi="300.10269"
       inkscape:export-filename="C:\Users\aravi\Desktop\path968.png"
       d="M 116.20954,165.61735 V 89.881393 h 16.58329 v 75.735957 z"
       style="font-style:normal;font-variant:normal;font-weight:bold;font-stretch:normal;font-size:20.5674px;line-height:1.25;font-family:Dubai;-inkscape-font-specification:'Dubai, Bold';font-variant-ligatures:normal;font-variant-caps:normal;font-variant-numeric:normal;font-feature-settings:normal;text-align:start;letter-spacing:0px;word-spacing:0px;writing-mode:lr-tb;text-anchor:start;fill:#007575;fill-opacity:1;stroke:none;stroke-width:1.77825"
       id="path923"
       inkscape:connector-curvature="0" />
    <path
       sodipodi:nodetypes="cccccccc"
       inkscape:export-ydpi="300.10269"
       inkscape:export-xdpi="300.10269"
       inkscape:export-filename="C:\Users\aravi\Desktop\path968.png"
       d="m 136.04442,89.881788 v 75.735902 h 40.65745 l 0.88109,-1.8035 5.12793,-12.45552 H 142.96623 V 89.881788 Z"
       style="font-style:normal;font-variant:normal;font-weight:bold;font-stretch:normal;font-size:20.5674px;line-height:1.25;font-family:Dubai;-inkscape-font-specification:'Dubai, Bold';font-variant-ligatures:normal;font-variant-caps:normal;font-variant-numeric:normal;font-feature-settings:normal;text-align:start;letter-spacing:0px;word-spacing:0px;writing-mode:lr-tb;text-anchor:start;display:inline;fill:#ffffff;fill-opacity:1;stroke:none;stroke-width:1.89186"
       id="path925" />
    <path
       sodipodi:nodetypes="ccccccccccccccc"
       inkscape:export-ydpi="300.10269"
       inkscape:export-xdpi="300.10269"
       inkscape:export-filename="C:\Users\aravi\Desktop\path968.png"
       d="m 229.18676,89.881393 27.21065,74.800947 0.39455,0.93501 h -18.02897 l -6.07267,-18.11586 h -28.02815 l -5.95595,18.11586 h -17.79538 l 0.39457,-0.93501 27.21059,-74.800947 z m -20.0868,44.296177 h 19.15257 l -9.69308,-28.86849 z"
       style="font-style:normal;font-variant:normal;font-weight:bold;font-stretch:normal;font-size:20.5674px;line-height:1.25;font-family:Dubai;-inkscape-font-specification:'Dubai, Bold';font-variant-ligatures:normal;font-variant-caps:normal;font-variant-numeric:normal;font-feature-settings:normal;text-align:start;letter-spacing:0px;word-spacing:0px;writing-mode:lr-tb;text-anchor:start;fill:#ffffff;fill-opacity:1;stroke:none;stroke-width:1.77825"
       id="path927"
       inkscape:connector-curvature="0" />
    <path
       id="path937"
       style="fill:#ffffff;fill-opacity:1;stroke-width:0.999999"
       d="m -168.43524,157.69111 c -3.04265,0 -5.06934,0.0444 -5.28212,0.1161 -0.67895,0.22844 -0.88708,0.70328 -0.88708,2.0218 v 1.24665 h -0.0144 v 2.14319 h 0.0144 v 3.20786 c 0,1.81083 0.0761,5.91237 0.1749,6.07569 0.0962,0.15913 0.43942,0.39058 0.76264,0.51448 0.32323,0.12382 0.64281,0.22539 0.71043,0.22562 0.50961,0.001 1.29745,-0.37606 2.76215,-1.32465 l 1.69915,-1.10035 1.67355,1.09992 c 1.87233,1.23042 2.46974,1.4401 3.31695,1.16468 1.10308,-0.35857 1.10262,-2.93541 1.10262,-6.56041 v -0.68857 h -0.0199 v -5.92722 l -0.0101,-0.25051 c -0.0586,-1.39615 -0.0679,-1.42478 -0.56289,-1.69217 l -0.50329,-0.27212 z m -2.66998,2.19981 h 2.60197 2.602 l 0.0473,3.35614 c 0.0262,1.84587 -0.006,3.35614 -0.0711,3.35614 -0.0652,0 -0.50691,-0.22843 -0.9817,-0.50764 -0.73172,-0.43028 -0.97506,-0.50766 -1.59646,-0.50766 -0.62141,0 -0.86474,0.0775 -1.59645,0.50766 -0.47479,0.27921 -0.9168,0.50764 -0.98204,0.50764 -0.0649,0 -0.0974,-1.51027 -0.0711,-3.35614 z"
       sodipodi:nodetypes="sssccccssssccccscccsccsccccssssscc" />
    <path
       id="path939"
       style="fill:#ffffff;fill-opacity:1;stroke-width:0.999999"
       d="m -146.90024,112.92222 c -2.58021,8.7e-4 -5.40535,0.004 -8.35668,0.008 l -21.46421,0.0315 -0.79234,0.31793 c -1.04733,0.42033 -1.9211,1.15343 -2.47948,2.08041 l -0.45508,0.75549 v 22.6211 c 0,21.38123 0.0132,22.6484 0.24426,23.12123 0.52815,1.08096 1.92644,2.19142 3.27559,2.60149 0.28001,0.0851 1.44064,0.17553 2.76067,0.21484 l 2.27756,0.0679 0.069,1.66837 c 0.0544,1.31595 0.11281,1.69087 0.27606,1.77503 0.47326,0.24381 1.0288,0.10913 2.15327,-0.52153 l 1.12611,-0.63148 1.15415,0.63148 c 1.22556,0.67058 1.76412,0.77873 2.21554,0.44484 0.22216,-0.16432 0.25261,-0.38039 0.25261,-1.80365 v -1.61704 l 17.74835,-0.0295 c 17.388,-0.0289 17.75241,-0.0338 17.94434,-0.24833 0.29467,-0.32936 0.29495,-49.09492 2.3e-4,-49.42477 -0.17389,-0.19465 -0.40398,-0.22298 -2.0705,-0.25581 l -1.87478,-0.037 v -0.54996 c 0,-0.66986 -0.22683,-1.11085 -0.61036,-1.18694 -0.11835,-0.0234 -5.65373,-0.0358 -13.39436,-0.0333 z m -17.28761,1.47007 c 2.57856,-8.8e-4 5.61387,8.8e-4 9.13797,0.006 l 20.15289,0.0295 0.0348,21.17854 0.0348,21.17835 -20.80881,0.03 -20.80881,0.0301 -0.96623,0.38978 c -0.53144,0.21438 -1.01364,0.40902 -1.07137,0.43274 -0.0577,0.0237 -0.0887,-9.26405 -0.069,-20.6394 l 0.0361,-20.68241 0.34508,-0.50258 c 0.46127,-0.67155 1.33615,-1.1995 2.24007,-1.35175 0.38169,-0.0643 4.00689,-0.096 11.74255,-0.0991 z m 31.29234,1.88783 1.13877,0.0329 1.13878,0.0329 v 23.35195 l -2.3e-4,23.35171 -16.94764,0.0289 c -14.26514,0.0241 -16.95923,0.004 -17.02044,-0.12622 -0.04,-0.0852 -0.0537,-0.42827 -0.0305,-0.76213 l 0.0423,-0.60702 4.54351,-0.0298 c 3.27303,-0.0214 4.59874,-0.0675 4.74194,-0.1646 0.44428,-0.30135 0.47596,-0.84495 0.0709,-1.2156 -0.0339,-0.031 -2.15301,-0.0818 -4.70903,-0.1128 l -4.6473,-0.0565 -0.0404,-0.81788 -0.0405,-0.81789 h 15.58242 15.58241 l 0.26286,-0.23795 c 0.32635,-0.29522 0.30049,1.55921 0.31812,-22.63916 z m -37.13099,42.08104 1.75993,0.0314 1.75992,0.0318 0.0365,3.71551 c 0.02,2.04356 -0.0114,3.75448 -0.0695,3.80209 -0.0582,0.0476 -0.37899,-0.0634 -0.71282,-0.24655 -0.33383,-0.18324 -0.78826,-0.33315 -1.0099,-0.33315 -0.22164,0 -0.67029,0.15033 -0.99697,0.33403 -0.32668,0.1837 -0.63284,0.30201 -0.68047,0.26308 -0.0476,-0.039 -0.0865,-1.76443 -0.0865,-3.83448 z m -3.85523,0.008 c 1.59894,0 1.90618,0.0275 1.97694,0.17826 0.10838,0.23065 0.10838,1.1048 0,1.33545 -0.0729,0.15537 -0.48353,0.17846 -3.17476,0.17846 -3.51631,0 -3.48876,0.009 -2.53071,-0.84034 0.80296,-0.71195 1.41549,-0.85183 3.72853,-0.85183 z m -2.22202,3.1748 c 0.32984,0.001 0.70913,0.005 1.14255,0.0101 l 3.07125,0.0304 v 0.73328 0.73306 l -2.00149,0.0209 c -2.34863,0.0244 -2.91054,-0.0929 -3.64979,-0.76169 -0.76742,-0.69422 -0.87139,-0.77857 1.43748,-0.7659 z" />
    <path
       sodipodi:nodetypes="sssssscccccccssssssssssss"
       id="path941"
       style="fill:#ffffff;fill-opacity:1;stroke:none;stroke-width:3;stroke-miterlimit:4;stroke-dasharray:none;stroke-opacity:1"
       d="m -155.70645,128.2683 c -1.39379,0 -2.78759,0.46511 -3.93375,1.39522 -0.60392,0.49008 -0.82114,0.73164 -1.12258,1.24887 -0.43696,0.74973 -0.575,1.22985 -0.575,1.99939 0,0.76272 0.13797,1.25044 0.55533,1.96166 0.57024,0.9717 1.43193,1.66374 2.6929,2.16294 l 0.53676,0.2125 -0.41116,3.05625 -0.64612,3.05625 h 2.90362 l 3.3148,0.11749 -0.82234,-3.17373 -0.64612,-3.05625 0.53679,-0.21249 c 1.26095,-0.49921 2.12246,-1.19125 2.69269,-2.16295 0.41737,-0.71122 0.55554,-1.19894 0.55554,-1.96166 0,-1.27289 -0.54251,-2.31092 -1.69759,-3.24826 -1.14618,-0.93011 -2.53998,-1.39522 -3.93377,-1.39522 z m 0.026,3.03666 c 0.29319,0.005 0.58999,0.0623 0.86854,0.17581 0.64553,0.2629 0.97509,0.66427 1.02702,1.25109 0.0719,0.81255 -0.46952,1.49778 -1.35465,1.71453 -0.66937,0.16389 -1.2358,0.0648 -1.82488,-0.31934 -0.73246,-0.47764 -0.9085,-1.5088 -0.36657,-2.14791 0.37781,-0.44557 1.00548,-0.68561 1.65054,-0.67418 z" />
    <path
       sodipodi:nodetypes="ccsccccccccscccsccc"
       id="path943"
       style="fill:#ffffff;fill-opacity:1;stroke:#ffffff;stroke-width:5.00002;stroke-miterlimit:4;stroke-dasharray:none;stroke-opacity:1"
       d="m -155.37218,94.013658 c -1.07516,2.41e-4 -2.14685,0.05115 -2.82255,0.152522 -6.36989,0.955391 -11.66852,3.828209 -12.95951,8.93931 -0.18861,0.74671 -0.38897,2.36099 -0.31309,2.52264 0.0515,0.10965 0.28306,0.12243 1.89654,0.10382 l 1.83787,-0.0211 0.0249,-0.3507 c 0.0451,-0.63033 0.32225,-1.96718 0.51609,-2.48929 1.11145,-2.993637 3.99188,-4.143648 7.63215,-5.229417 2.47895,-0.739251 5.68098,-0.739428 8.15904,-2.28e-4 4.17464,1.245153 7.19607,4.177235 7.94037,7.705495 0.16288,0.77216 0.18662,1.25961 0.18662,3.83761 v 2.14438 h 3.90946 l -4.6e-4,-2.32704 c -4.7e-4,-3.41949 -0.0699,-4.04608 -0.62037,-5.60983 -1.6635,-4.725566 -6.59895,-8.35607 -12.54385,-9.227041 -0.68941,-0.101031 -1.76806,-0.151268 -2.84322,-0.15099 z" />
    <path
       style="fill:#ffffff;fill-opacity:1;stroke:#ffffff;stroke-width:1.5;stroke-linecap:butt;stroke-linejoin:miter;stroke-miterlimit:4;stroke-dasharray:none;stroke-opacity:1"
       d="m -175.79076,113.41727 v 44.07519"
       id="path945" />
    <rect
       y="159.11212"
       x="-171.38866"
       height="8.3484001"
       width="6.8531642"
       id="rect1759"
       style="fill:#ffffff;fill-opacity:1;stroke:none;stroke-width:0.0499998;stroke-miterlimit:4;stroke-dasharray:none;stop-color:#000000" />
  </g>
</svg>
