<?xml version="1.0" encoding="UTF-8" standalone="no"?>
<svg
   xmlns:dc="http://purl.org/dc/elements/1.1/"
   xmlns:cc="http://creativecommons.org/ns#"
   xmlns:rdf="http://www.w3.org/1999/02/22-rdf-syntax-ns#"
   xmlns:svg="http://www.w3.org/2000/svg"
   xmlns="http://www.w3.org/2000/svg"
   xmlns:sodipodi="http://sodipodi.sourceforge.net/DTD/sodipodi-0.dtd"
   xmlns:inkscape="http://www.inkscape.org/namespaces/inkscape"
   width="487.55124mm"
   height="95.270737mm"
   viewBox="0 0 487.55125 95.270735"
   version="1.1"
   id="svg1767"
   inkscape:version="1.0 (4035a4fb49, 2020-05-01)"
   sodipodi:docname="book unlock +ve.svg">
  <defs
     id="defs1761" />
  <sodipodi:namedview
     id="base"
     pagecolor="#ffffff"
     bordercolor="#666666"
     borderopacity="1.0"
     inkscape:pageopacity="0.0"
     inkscape:pageshadow="2"
     inkscape:zoom="0.35"
     inkscape:cx="400"
     inkscape:cy="560"
     inkscape:document-units="mm"
     inkscape:current-layer="layer1"
     inkscape:document-rotation="0"
     showgrid="false"
     fit-margin-top="0"
     fit-margin-left="0"
     fit-margin-right="0"
     fit-margin-bottom="0"
     scale-x="1"
     showborder="true" />
  <metadata
     id="metadata1764">
    <rdf:RDF>
      <cc:Work
         rdf:about="">
        <dc:format>image/svg+xml</dc:format>
        <dc:type
           rdf:resource="http://purl.org/dc/dcmitype/StillImage" />
        <dc:title />
      </cc:Work>
    </rdf:RDF>
  </metadata>
  <g
     inkscape:label="Layer 1"
     inkscape:groupmode="layer"
     id="layer1"
     transform="translate(224.12086,-86.924153)">
    <path
       sodipodi:nodetypes="sssccccssssccccscccsccsccccssssscc"
       d="m -206.80407,163.93672 c -3.40621,0 -5.67506,0.0498 -5.91328,0.12998 -0.76006,0.25572 -0.99306,0.78732 -0.99306,2.26339 v 1.39561 h -0.0161 v 2.39928 h 0.0161 v 3.59115 c 0,2.0272 0.0852,6.61884 0.19579,6.80168 0.10776,0.17813 0.49192,0.43725 0.85377,0.57594 0.36184,0.1387 0.71962,0.25234 0.79531,0.2526 0.5705,0.002 1.45249,-0.421 3.0922,-1.48294 l 1.90218,-1.23182 1.87352,1.23133 c 2.09606,1.37746 2.76485,1.61218 3.7133,1.30386 1.23487,-0.40143 1.23437,-3.28616 1.23437,-7.34433 v -0.77083 h -0.0222 v -6.63545 l -0.0115,-0.28045 c -0.0655,-1.56298 -0.076,-1.59502 -0.63014,-1.89437 l -0.56342,-0.30463 z m -2.989,2.46268 h 2.91287 2.91289 l 0.053,3.75714 c 0.0293,2.06644 -0.006,3.75716 -0.0797,3.75716 -0.073,0 -0.56745,-0.25574 -1.09899,-0.56829 -0.81914,-0.4817 -1.09156,-0.56832 -1.78722,-0.56832 -0.69565,0 -0.96806,0.0867 -1.78719,0.56832 -0.53155,0.31255 -1.02637,0.56829 -1.09939,0.56829 -0.0728,0 -0.109,-1.69072 -0.0797,-3.75716 z"
       style="fill:#33364d;fill-opacity:1;stroke-width:1"
       id="path983" />
    <path
       d="m -182.69587,113.81843 c -2.88852,9.8e-4 -6.05122,0.003 -9.35521,0.009 l -24.02894,0.0353 -0.88702,0.35593 c -1.17247,0.47054 -2.15065,1.29124 -2.77575,2.32898 l -0.50946,0.84577 v 25.32405 c 0,23.93607 0.0148,25.35465 0.27344,25.88399 0.59126,1.21012 2.15664,2.45326 3.667,2.91234 0.31347,0.0953 1.61278,0.19649 3.09054,0.2405 l 2.54969,0.076 0.0772,1.86772 c 0.0609,1.47318 0.12623,1.8929 0.30904,1.98711 0.5298,0.27295 1.15173,0.12221 2.41056,-0.58383 l 1.26067,-0.70695 1.29205,0.70695 c 1.372,0.7507 1.97493,0.87178 2.48027,0.49799 0.24872,-0.18396 0.2828,-0.42584 0.2828,-2.01917 v -1.81025 l 19.86909,-0.033 c 19.46568,-0.0323 19.87363,-0.0378 20.0885,-0.278 0.32988,-0.36871 0.33018,-54.96124 2.5e-4,-55.33051 -0.19466,-0.2179 -0.45225,-0.24962 -2.3179,-0.28637 l -2.0988,-0.0415 v -0.61567 c 0,-0.74989 -0.25393,-1.24358 -0.68329,-1.32877 -0.13249,-0.0263 -6.3293,-0.0401 -14.99485,-0.0372 z m -19.35328,1.64572 c 2.88666,-9.8e-4 6.28466,9.9e-4 10.22986,0.007 l 22.56094,0.033 0.039,23.70917 0.039,23.70893 -23.29525,0.0336 -23.29523,0.0337 -1.08168,0.43634 c -0.59493,0.24 -1.13477,0.4579 -1.19941,0.48446 -0.0647,0.0265 -0.0994,-10.371 -0.0772,-23.10559 l 0.0405,-23.15374 0.38631,-0.56264 c 0.51639,-0.75177 1.49582,-1.34282 2.50774,-1.51327 0.42729,-0.0719 4.48567,-0.10743 13.14566,-0.11103 z m 35.03144,2.11342 1.27484,0.0367 1.27485,0.0369 v 26.14224 l -2.7e-4,26.14199 -18.97271,0.0324 c -15.96966,0.0269 -18.98566,0.003 -19.0542,-0.14133 -0.0447,-0.0954 -0.0601,-0.47945 -0.0342,-0.85321 l 0.0473,-0.67955 5.08641,-0.0334 c 3.66412,-0.024 5.14824,-0.0755 5.30854,-0.18426 0.49737,-0.33736 0.53284,-0.9459 0.0794,-1.36084 -0.038,-0.0347 -2.41029,-0.0915 -5.27172,-0.12629 l -5.2026,-0.0631 -0.0453,-0.91562 -0.0453,-0.9156 h 17.44433 17.44435 l 0.29427,-0.2664 c 0.36534,-0.33048 0.33639,1.74554 0.35613,-25.34429 z m -41.56775,47.10926 1.97022,0.0352 1.97022,0.0355 0.0407,4.15946 c 0.0224,2.28775 -0.0127,4.20311 -0.0779,4.2564 -0.0651,0.0532 -0.42426,-0.071 -0.79798,-0.27601 -0.37372,-0.20513 -0.88246,-0.37296 -1.13058,-0.37296 -0.24812,0 -0.75038,0.16831 -1.11609,0.37395 -0.36573,0.20563 -0.70845,0.33809 -0.76178,0.29451 -0.0532,-0.0436 -0.0968,-1.97525 -0.0968,-4.29266 z m -4.31589,0.008 c 1.78999,0 2.13396,0.0308 2.21318,0.19957 0.12125,0.2582 0.12125,1.2368 0,1.495 -0.0817,0.17394 -0.54131,0.1998 -3.55412,0.1998 -3.93647,0 -3.90563,0.0102 -2.8331,-0.94076 0.89891,-0.79702 1.58462,-0.95361 4.17404,-0.95361 z m -2.48753,3.55416 c 0.36926,0.002 0.79387,0.006 1.27908,0.0113 l 3.43822,0.034 v 0.8209 0.82065 l -2.24064,0.0234 c -2.62926,0.0274 -3.25832,-0.10404 -4.08591,-0.8527 -0.85911,-0.77716 -0.9755,-0.87162 1.60925,-0.85741 z"
       style="fill:#33364d;fill-opacity:1;stroke-width:1"
       id="path962" />
    <path
       sodipodi:nodetypes="sssssscccccccssssssssssss"
       d="m -192.55431,130.9982 c -1.56033,0 -3.12068,0.52067 -4.40378,1.56192 -0.6761,0.54865 -0.91928,0.81907 -1.25674,1.39811 -0.48917,0.83931 -0.6437,1.37679 -0.6437,2.23828 0,0.85387 0.15445,1.39985 0.6217,2.19606 0.63836,1.08781 1.60301,1.86255 3.01466,2.42141 l 0.60091,0.23787 -0.59183,3.42145 -0.72333,3.42145 h 3.38211 3.64514 l -0.85486,-3.42145 -0.72332,-3.42145 0.60091,-0.23787 c 1.41164,-0.55886 2.37609,-1.3336 3.01446,-2.42141 0.46723,-0.79621 0.6219,-1.34219 0.6219,-2.19606 0,-1.42499 -0.60732,-2.58704 -1.90044,-3.63639 -1.28311,-1.04125 -2.84346,-1.56192 -4.40379,-1.56192 z m 0.0291,3.3995 c 0.32823,0.006 0.6605,0.0698 0.97232,0.19681 0.72267,0.29432 1.0916,0.74365 1.14975,1.40059 0.0805,0.90964 -0.52561,1.67675 -1.51653,1.91939 -0.74934,0.18348 -1.38346,0.0725 -2.04293,-0.35749 -0.81996,-0.53472 -1.01705,-1.68909 -0.41036,-2.40457 0.42294,-0.4988 1.12562,-0.76752 1.84775,-0.75473 z"
       style="fill:#33364d;fill-opacity:1;stroke:none;stroke-width:3.00001;stroke-miterlimit:4;stroke-dasharray:none;stroke-opacity:1"
       id="path877-6" />
    <path
       sodipodi:nodetypes="ccccsccccsssccccccc"
       d="m -192.1801,92.650495 c -1.20363,3.12e-4 -2.40338,0.05729 -3.15981,0.170741 -7.13103,1.069548 -12.77931,4.349215 -14.22457,10.071044 -0.21114,0.83594 -0.43544,2.64311 -0.35048,2.82407 0.0577,0.12279 0.31687,0.13703 2.12315,0.11622 l 2.05747,-0.0237 0.028,-0.3926 c 0.0504,-0.70566 0.36075,-2.20226 0.57774,-2.78675 1.24426,-3.351331 4.18539,-4.702343 8.26064,-5.917858 2.77516,-0.827575 6.3598,-0.827778 9.13395,-3.38e-4 4.67346,1.393946 8.05592,4.676366 8.88915,8.626236 0.18235,0.86441 0.20893,1.41012 0.20893,4.29615 v 2.40063 h 4.3766 l -5.2e-4,-2.60511 c -5.2e-4,-3.82808 -0.0782,-4.52955 -0.6945,-6.28014 -1.86227,-5.290235 -7.38746,-9.354542 -14.0427,-10.329581 -0.77179,-0.113038 -1.97932,-0.169345 -3.18294,-0.169038 z"
       style="fill:#33364d;fill-opacity:1;stroke:#33364d;stroke-width:5.00002;stroke-miterlimit:4;stroke-dasharray:none;stroke-opacity:1"
       id="path879-5" />
    <path
       id="path971"
       d="m -215.03849,114.37262 v 49.3417"
       style="fill:#33364d;fill-opacity:1;stroke:#33364d;stroke-width:1.5;stroke-linecap:butt;stroke-linejoin:miter;stroke-miterlimit:4;stroke-dasharray:none;stroke-opacity:1" />
    <path
       id="path897"
       style="font-style:normal;font-variant:normal;font-weight:bold;font-stretch:normal;font-size:20.5674px;line-height:1.25;font-family:Dubai;-inkscape-font-specification:'Dubai, Bold';font-variant-ligatures:normal;font-variant-caps:normal;font-variant-numeric:normal;font-feature-settings:normal;text-align:start;letter-spacing:0px;word-spacing:0px;writing-mode:lr-tb;text-anchor:start;fill:#33364d;fill-opacity:1;stroke:none;stroke-width:1.77825"
       d="m -160.75977,89.512812 v 15.831638 h 27.06293 v 68.95388 h 18.56498 v -68.95388 h 23.897171 l 5.759653,-15.831638 z"
       inkscape:export-filename="C:\Users\aravi\Desktop\path968.png"
       inkscape:export-xdpi="300.10269"
       inkscape:export-ydpi="300.10269"
       sodipodi:nodetypes="ccccccccc" />
    <path
       inkscape:connector-curvature="0"
       id="path899"
       style="font-style:normal;font-variant:normal;font-weight:bold;font-stretch:normal;font-size:20.5674px;line-height:1.25;font-family:Dubai;-inkscape-font-specification:'Dubai, Bold';font-variant-ligatures:normal;font-variant-caps:normal;font-variant-numeric:normal;font-feature-settings:normal;text-align:start;letter-spacing:0px;word-spacing:0px;writing-mode:lr-tb;text-anchor:start;fill:#33364d;fill-opacity:1;stroke:none;stroke-width:1.77825"
       d="m -57.436255,89.512369 30.461987,83.738861 0.40743,1.04674 h -20.1489 l -6.798363,-20.28052 H -84.89126 l -6.667641,20.28052 h -19.898459 l 0.41848,-1.04674 30.461969,-83.738861 z m -22.486956,49.589101 h 21.441052 L -69.333427,106.7835 Z"
       inkscape:export-filename="C:\Users\aravi\Desktop\path968.png"
       inkscape:export-xdpi="300.10269"
       inkscape:export-ydpi="300.10269"
       sodipodi:nodetypes="ccccccccccccccc" />
    <path
       id="path901"
       style="font-style:normal;font-variant:normal;font-weight:bold;font-stretch:normal;font-size:20.5674px;line-height:1.25;font-family:Dubai;-inkscape-font-specification:'Dubai, Bold';font-variant-ligatures:normal;font-variant-caps:normal;font-variant-numeric:normal;font-feature-settings:normal;text-align:start;letter-spacing:0px;word-spacing:0px;writing-mode:lr-tb;text-anchor:start;fill:#33364d;fill-opacity:1;stroke:none;stroke-width:1.77825"
       d="m -0.1145439,87.680124 c -7.9314516,0 -15.1652831,1.613788 -21.7021921,4.841223 -6.449764,3.140208 -11.635748,8.025513 -15.557881,14.654833 -2.066015,3.44608 -3.58136,7.34465 -4.559084,11.68623 l 19.047481,52.36086 c 6.108133,3.27014 13.3932083,4.9068 21.8570057,4.9068 1.83032511,0 3.1812705,-0.044 4.0528263,-0.13119 l 7.878682,5.44006 h 33.531805 l -1.274371,-0.73002 -21.309927,-10.85924 c 6.101126,-3.7508 10.982532,-8.81003 14.643192,-15.17763 3.66067,-6.4549 5.490867,-13.95723 5.490867,-22.50556 0,-8.81003 -1.612518,-16.52927 -4.837395,-23.1586 C 34.008762,102.29134 29.258119,97.057283 22.895548,93.306486 16.620112,89.55569 8.9499761,87.680105 -0.1145439,87.680105 Z m 0,15.177646 c 7.4956394,0 13.2048059,2.61703 17.1269599,7.85071 3.922153,5.14644 5.883132,12.34305 5.883132,21.5892 0,5.84428 -0.914631,10.94743 -2.744976,15.30882 -1.743161,4.27417 -4.444973,7.58868 -8.105662,9.94386 -3.5734964,2.26791 -7.9317574,3.40205 -13.0741243,3.40205 -7.5828038,0 -13.3349377,-2.57399 -17.2570917,-7.72045 -3.922153,-5.23369 -5.884066,-12.47328 -5.884066,-21.71944 0,-8.89727 2.048802,-15.87505 6.145265,-20.93426 4.096462,-5.14647 10.0662759,-7.72049 17.9105631,-7.72049 z"
       inkscape:export-filename="C:\Users\aravi\Desktop\path968.png"
       inkscape:export-xdpi="300.10269"
       inkscape:export-ydpi="300.10269"
       sodipodi:nodetypes="sccccsccccccsccssscsccscscs" />
    <path
       id="path903"
       style="font-style:normal;font-variant:normal;font-weight:bold;font-stretch:normal;font-size:20.5674px;line-height:1.25;font-family:Dubai;-inkscape-font-specification:'Dubai, Bold';font-variant-ligatures:normal;font-variant-caps:normal;font-variant-numeric:normal;font-feature-settings:normal;text-align:start;letter-spacing:0px;word-spacing:0px;writing-mode:lr-tb;text-anchor:start;fill:#33364d;fill-opacity:1;stroke:none;stroke-width:1.77825"
       d="m 24.547853,89.512812 c 6.179286,3.991002 10.901125,9.242039 14.245249,15.831638 h 35.404487 l -40.138705,60.05661 v 8.89727 H 98.7638 V 158.46574 H 57.986254 L 98.7638,98.410085 v -8.897273 z"
       sodipodi:nodetypes="ccccccccccc"
       inkscape:export-filename="C:\Users\aravi\Desktop\path968.png"
       inkscape:export-xdpi="300.10269"
       inkscape:export-ydpi="300.10269" />
    <path
       inkscape:connector-curvature="0"
       id="path905"
       style="font-style:normal;font-variant:normal;font-weight:bold;font-stretch:normal;font-size:20.5674px;line-height:1.25;font-family:Dubai;-inkscape-font-specification:'Dubai, Bold';font-variant-ligatures:normal;font-variant-caps:normal;font-variant-numeric:normal;font-feature-settings:normal;text-align:start;letter-spacing:0px;word-spacing:0px;writing-mode:lr-tb;text-anchor:start;fill:#007575;fill-opacity:1;stroke:none;stroke-width:1.77825"
       d="M 102.18129,174.29797 V 89.512369 h 18.56483 v 84.785601 z"
       inkscape:export-filename="C:\Users\aravi\Desktop\path968.png"
       inkscape:export-xdpi="300.10269"
       inkscape:export-ydpi="300.10269" />
    <path
       id="path907"
       style="font-style:normal;font-variant:normal;font-weight:bold;font-stretch:normal;font-size:20.5674px;line-height:1.25;font-family:Dubai;-inkscape-font-specification:'Dubai, Bold';font-variant-ligatures:normal;font-variant-caps:normal;font-variant-numeric:normal;font-feature-settings:normal;text-align:start;letter-spacing:0px;word-spacing:0px;writing-mode:lr-tb;text-anchor:start;display:inline;fill:#33364d;fill-opacity:1;stroke:none;stroke-width:1.89186"
       d="m 124.3862,89.512812 v 84.785518 h 45.51562 l 0.98633,-2.01899 5.7407,-13.94382 H 132.13513 V 89.512812 Z"
       inkscape:export-filename="C:\Users\aravi\Desktop\path968.png"
       inkscape:export-xdpi="300.10269"
       inkscape:export-ydpi="300.10269"
       sodipodi:nodetypes="cccccccc" />
    <path
       inkscape:connector-curvature="0"
       id="path909"
       style="font-style:normal;font-variant:normal;font-weight:bold;font-stretch:normal;font-size:20.5674px;line-height:1.25;font-family:Dubai;-inkscape-font-specification:'Dubai, Bold';font-variant-ligatures:normal;font-variant-caps:normal;font-variant-numeric:normal;font-feature-settings:normal;text-align:start;letter-spacing:0px;word-spacing:0px;writing-mode:lr-tb;text-anchor:start;fill:#33364d;fill-opacity:1;stroke:none;stroke-width:1.77825"
       d="m 228.65808,89.512369 30.46199,83.738861 0.44171,1.04674 h -20.18321 l -6.79832,-20.28052 h -31.3772 l -6.66764,20.28052 h -19.92174 l 0.44176,-1.04674 30.46196,-83.738861 z m -22.48699,49.589101 h 21.4411 L 216.7609,106.7835 Z"
       inkscape:export-filename="C:\Users\aravi\Desktop\path968.png"
       inkscape:export-xdpi="300.10269"
       inkscape:export-ydpi="300.10269"
       sodipodi:nodetypes="ccccccccccccccc" />
    <rect
       y="165.34154"
       x="-210.29636"
       height="8.8344746"
       width="7.160574"
       id="rect1757"
       style="fill:#33364d;fill-opacity:1;stroke:none;stroke-width:0.0499999;stroke-miterlimit:4;stroke-dasharray:none;stop-color:#000000" />
  </g>
</svg>
