<?xml version="1.0" encoding="UTF-8" standalone="no"?>
<svg
   xmlns:dc="http://purl.org/dc/elements/1.1/"
   xmlns:cc="http://creativecommons.org/ns#"
   xmlns:rdf="http://www.w3.org/1999/02/22-rdf-syntax-ns#"
   xmlns:svg="http://www.w3.org/2000/svg"
   xmlns="http://www.w3.org/2000/svg"
   xmlns:sodipodi="http://sodipodi.sourceforge.net/DTD/sodipodi-0.dtd"
   xmlns:inkscape="http://www.inkscape.org/namespaces/inkscape"
   sodipodi:docname="Finalized Logo +ve.svg"
   inkscape:version="1.0 (4035a4fb49, 2020-05-01)"
   id="svg916"
   version="1.1"
   viewBox="0 0 567.12988 160.89626"
   height="160.89626mm"
   width="567.12988mm">
  <defs
     id="defs910" />
  <sodipodi:namedview
     inkscape:showpageshadow="true"
     showborder="true"
     fit-margin-bottom="0"
     fit-margin-right="0"
     fit-margin-left="0"
     fit-margin-top="0"
     showgrid="false"
     inkscape:document-rotation="0"
     inkscape:current-layer="layer1"
     inkscape:document-units="mm"
     inkscape:cy="560"
     inkscape:cx="400"
     inkscape:zoom="0.35"
     inkscape:pageshadow="2"
     inkscape:pageopacity="0.0"
     borderopacity="1"
     bordercolor="#66e466"
     pagecolor="#ffffff"
     id="base" />
  <metadata
     id="metadata913">
    <rdf:RDF>
      <cc:Work
         rdf:about="">
        <dc:format>image/svg+xml</dc:format>
        <dc:type
           rdf:resource="http://purl.org/dc/dcmitype/StillImage" />
        <dc:title></dc:title>
      </cc:Work>
    </rdf:RDF>
  </metadata>
  <g
     transform="translate(143.71375,-101.7364)"
     id="layer1"
     inkscape:groupmode="layer"
     inkscape:label="Layer 1">
    <g
       inkscape:export-ydpi="29.994484"
       inkscape:export-xdpi="29.994484"
       transform="translate(-164.04232,-22.811204)"
       id="g871">
      <rect
         inkscape:export-ydpi="300.10269"
         inkscape:export-xdpi="300.10269"
         inkscape:export-filename="C:\Users\aravi\Desktop\path968.png"
         y="124.5476"
         x="20.328571"
         height="160.89626"
         width="567.12988"
         id="rect1597"
         style="fill:#fefefe;fill-opacity:1;stroke-width:2.64583;stop-color:#000000" />
      <path
         sodipodi:nodetypes="ccccccccc"
         inkscape:export-ydpi="300.10269"
         inkscape:export-xdpi="300.10269"
         inkscape:export-filename="C:\Users\aravi\Desktop\path968.png"
         d="m 139.86848,158.75839 v 16.08694 h 27.49933 v 70.06579 h 18.86435 v -70.06579 h 24.28253 l 5.85253,-16.08694 z"
         style="font-style:normal;font-variant:normal;font-weight:bold;font-stretch:normal;font-size:20.5674px;line-height:1.25;font-family:Dubai;-inkscape-font-specification:'Dubai, Bold';font-variant-ligatures:normal;font-variant-caps:normal;font-variant-numeric:normal;font-feature-settings:normal;text-align:start;letter-spacing:0px;word-spacing:0px;writing-mode:lr-tb;text-anchor:start;opacity:1;fill:#33364d;fill-opacity:1;stroke:none;stroke-width:1.77825"
         id="path4606" />
      <path
         sodipodi:nodetypes="ccccccccccccccc"
         inkscape:export-ydpi="300.10269"
         inkscape:export-xdpi="300.10269"
         inkscape:export-filename="C:\Users\aravi\Desktop\path968.png"
         d="m 244.85814,158.75794 30.9532,85.08919 0.414,1.06361 h -20.47381 l -6.90799,-20.60755 h -31.88313 l -6.77516,20.60755 h -20.21933 l 0.42522,-1.06361 30.95319,-85.08919 z m -22.84957,50.38874 h 21.7868 l -11.02625,-32.8391 z"
         style="font-style:normal;font-variant:normal;font-weight:bold;font-stretch:normal;font-size:20.5674px;line-height:1.25;font-family:Dubai;-inkscape-font-specification:'Dubai, Bold';font-variant-ligatures:normal;font-variant-caps:normal;font-variant-numeric:normal;font-feature-settings:normal;text-align:start;letter-spacing:0px;word-spacing:0px;writing-mode:lr-tb;text-anchor:start;opacity:1;fill:#33364d;fill-opacity:1;stroke:none;stroke-width:1.77825"
         id="path4608"
         inkscape:connector-curvature="0" />
      <path
         sodipodi:nodetypes="sccccsccccccsccssscsccscscs"
         inkscape:export-ydpi="300.10269"
         inkscape:export-xdpi="300.10269"
         inkscape:export-filename="C:\Users\aravi\Desktop\path968.png"
         d="m 303.10419,156.89615 c -8.05935,0 -15.40983,1.63981 -22.05215,4.91929 -6.55377,3.19084 -11.82338,8.15493 -15.80876,14.89115 -2.09933,3.50166 -3.63911,7.46308 -4.6326,11.87468 l 19.35463,53.20519 c 6.20663,3.32288 13.60918,4.98594 22.20946,4.98594 1.85984,0 3.23257,-0.0447 4.11818,-0.13332 l 8.00573,5.52779 h 34.07253 l -1.29494,-0.7418 -21.65355,-11.03435 c 6.19951,-3.81128 11.15963,-8.95208 14.87932,-15.42238 3.7197,-6.55898 5.5794,-14.18228 5.5794,-22.86846 0,-8.9521 -1.63852,-16.79581 -4.91539,-23.53204 -3.1883,-6.82486 -8.01555,-12.14332 -14.48072,-15.9546 -6.37663,-3.81128 -14.17045,-5.71711 -23.38114,-5.71711 z m 0,15.4224 c 7.61651,0 13.41774,2.65922 17.40314,7.9773 3.9854,5.22943 5.978,12.54208 5.978,21.93733 0,5.93853 -0.92938,11.12398 -2.78924,15.55569 -1.77127,4.34309 -4.51665,7.71105 -8.23637,10.1042 -3.63112,2.30449 -8.05966,3.45692 -13.28495,3.45692 -7.70508,0 -13.54997,-2.61551 -17.53537,-7.84496 -3.9854,-5.31807 -5.97895,-12.6744 -5.97895,-22.06966 0,-9.04074 2.08184,-16.13104 6.24436,-21.27184 4.16252,-5.22945 10.2286,-7.84498 18.19938,-7.84498 z"
         style="font-style:normal;font-variant:normal;font-weight:bold;font-stretch:normal;font-size:20.5674px;line-height:1.25;font-family:Dubai;-inkscape-font-specification:'Dubai, Bold';font-variant-ligatures:normal;font-variant-caps:normal;font-variant-numeric:normal;font-feature-settings:normal;text-align:start;letter-spacing:0px;word-spacing:0px;writing-mode:lr-tb;text-anchor:start;opacity:1;fill:#33364d;fill-opacity:1;stroke:none;stroke-width:1.77825"
         id="path4610" />
      <path
         inkscape:export-ydpi="300.10269"
         inkscape:export-xdpi="300.10269"
         inkscape:export-filename="C:\Users\aravi\Desktop\path968.png"
         sodipodi:nodetypes="ccccccccccc"
         d="m 328.16428,158.75839 c 6.27893,4.05536 11.07691,9.39107 14.47496,16.08694 h 35.97539 l -40.78595,61.02504 v 9.04075 h 65.74831 v -16.0879 h -41.4351 l 41.4351,-61.02408 v -9.04075 z"
         style="font-style:normal;font-variant:normal;font-weight:bold;font-stretch:normal;font-size:20.5674px;line-height:1.25;font-family:Dubai;-inkscape-font-specification:'Dubai, Bold';font-variant-ligatures:normal;font-variant-caps:normal;font-variant-numeric:normal;font-feature-settings:normal;text-align:start;letter-spacing:0px;word-spacing:0px;writing-mode:lr-tb;text-anchor:start;opacity:1;fill:#33364d;fill-opacity:1;stroke:none;stroke-width:1.77825"
         id="path4612" />
      <path
         inkscape:export-ydpi="300.10269"
         inkscape:export-xdpi="300.10269"
         inkscape:export-filename="C:\Users\aravi\Desktop\path968.png"
         d="m 407.04958,244.91074 v -86.1528 h 18.86419 v 86.1528 z"
         style="font-style:normal;font-variant:normal;font-weight:bold;font-stretch:normal;font-size:20.5674px;line-height:1.25;font-family:Dubai;-inkscape-font-specification:'Dubai, Bold';font-variant-ligatures:normal;font-variant-caps:normal;font-variant-numeric:normal;font-feature-settings:normal;text-align:start;letter-spacing:0px;word-spacing:0px;writing-mode:lr-tb;text-anchor:start;opacity:1;fill:#007575;fill-opacity:1;stroke:none;stroke-width:1.77825"
         id="path4614"
         inkscape:connector-curvature="0" />
      <path
         sodipodi:nodetypes="cccccccc"
         inkscape:export-ydpi="300.10269"
         inkscape:export-xdpi="300.10269"
         inkscape:export-filename="C:\Users\aravi\Desktop\path968.png"
         d="m 429.61257,158.75839 v 86.15273 h 46.24955 l 1.00226,-2.05155 5.83326,-14.16867 h -45.21121 v -69.93251 z"
         style="font-style:normal;font-variant:normal;font-weight:bold;font-stretch:normal;font-size:20.5674px;line-height:1.25;font-family:Dubai;-inkscape-font-specification:'Dubai, Bold';font-variant-ligatures:normal;font-variant-caps:normal;font-variant-numeric:normal;font-feature-settings:normal;text-align:start;letter-spacing:0px;word-spacing:0px;writing-mode:lr-tb;text-anchor:start;display:inline;opacity:1;fill:#33364d;fill-opacity:1;stroke:none;stroke-width:1.89186"
         id="path4616" />
      <path
         sodipodi:nodetypes="ccccccccccccccc"
         inkscape:export-ydpi="300.10269"
         inkscape:export-xdpi="300.10269"
         inkscape:export-filename="C:\Users\aravi\Desktop\path968.png"
         d="m 535.56586,158.75794 30.95321,85.08919 0.44885,1.06361 h -20.50869 l -6.90794,-20.60755 h -31.88318 l -6.77514,20.60755 h -20.24298 l 0.44885,-1.06361 30.95318,-85.08919 z m -22.84959,50.38874 h 21.78685 l -11.02628,-32.8391 z"
         style="font-style:normal;font-variant:normal;font-weight:bold;font-stretch:normal;font-size:20.5674px;line-height:1.25;font-family:Dubai;-inkscape-font-specification:'Dubai, Bold';font-variant-ligatures:normal;font-variant-caps:normal;font-variant-numeric:normal;font-feature-settings:normal;text-align:start;letter-spacing:0px;word-spacing:0px;writing-mode:lr-tb;text-anchor:start;opacity:1;fill:#33364d;fill-opacity:1;stroke:none;stroke-width:1.77825"
         id="path4618"
         inkscape:connector-curvature="0" />
      <path
         id="path1012"
         style="opacity:1;fill:#008080;stroke:none;stroke-width:0.642021;stroke-linecap:butt;stroke-linejoin:miter;stroke-miterlimit:4;stroke-dasharray:none;stroke-opacity:1"
         d="m 281.96484,846.17773 c -0.55432,0.003 -1.06964,0.02 -1.5332,0.0527 -3.42206,0.22942 -3.72608,0.33298 -4.20117,2.94531 10.36036,21.5012 10.18252,20.35011 39.79883,75.97266 1.12206,2.1081 2.05903,3.78476 2.875,5.21289 v 0.004 c 0.81581,1.4281 1.52913,2.59893 2.26172,3.66211 1.46498,2.12629 3.01193,3.83762 4.76367,4.87696 1.75177,1.03937 3.71641,1.41362 4.70117,1.59961 0.39938,0.0722 0.62661,0.0992 0.82617,0.0644 0.0586,0.034 0.10724,0.082 0.16016,0.11719 l 45.58789,0.18945 0.19336,0.0469 c 0.192,0.0457 0.57789,0.14135 1.77344,1.68945 0.13681,0.17612 0.37699,0.50226 0.5332,0.71289 0.88463,1.42734 1.92077,2.75402 3.08789,3.96094 0.61243,0.713 1.25041,1.41602 1.93359,2.04296 2.35529,2.16144 5.07103,3.48139 7.99219,4.46876 2.92105,0.98736 6.05433,1.64209 10.05273,0.93554 3.99848,-0.70666 8.86245,-2.7733 12.1543,-5.45117 1.76005,-1.43169 3.05108,-3.03946 4.04688,-4.70117 5.40064,-7.66617 5.73822,-17.8103 0.85742,-25.81836 -6.7773,-11.08872 -21.25404,-14.57943 -32.33399,-7.79688 -1.42,0.87988 -2.74116,1.90621 -3.94336,3.06641 -2.34856,1.174 -5.30785,2.28027 -9.39648,2.89063 -7.97076,1.18956 -20.10701,0.51795 -26.78125,-0.008 -6.67404,-0.52667 -7.81332,-0.90748 -10.30078,-4.23437 -2.4875,-3.32633 -6.31873,-9.58031 -8.43164,-13.10547 -2.11302,-3.52505 -2.49036,-4.28749 -1.95703,-4.90234 0.53359,-0.61535 1.98076,-1.09086 13.44531,-0.89844 11.46457,0.19313 32.95066,1.05556 47.61328,1.60937 14.66264,0.55344 22.53186,0.79935 27.35352,0.49805 4.8215,-0.30236 6.6173,-1.15414 9.14062,-4.48047 2.52325,-3.32636 5.76003,-9.11434 7.29297,-12.37891 1.53286,-3.26464 1.34921,-3.97242 0.90039,-4.57031 -0.44889,-0.59777 -1.15303,-1.07834 -19.83984,-1.90625 -18.68686,-0.82805 -55.29145,-2.00035 -74.60938,-2.79492 -19.31799,-0.79461 -21.22346,-1.20461 -22.9043,-2.125 -1.68075,-0.92039 -3.13387,-2.34974 -4.29101,-3.63281 -1.1571,-1.28296 -2.01074,-2.41126 -3.17578,-3.97852 -1.16485,-1.56718 -2.63475,-3.56809 -3.6875,-5.49414 -1.05283,-1.92605 -1.68301,-3.76979 -2.58008,-4.96484 -0.89635,-1.19532 -2.10611,-1.75569 -6.15625,-2.31446 -3.03768,-0.41915 -7.73326,-0.91581 -11.45508,-1.0332 v -0.004 c -0.62029,-0.0195 -1.21325,-0.0287 -1.76758,-0.0254 z m 116.79883,71.4961 c 0.33769,-0.009 0.67333,-0.005 1.00977,0.01 4.48577,0.20221 8.79591,2.55831 11.3164,6.67969 4.03242,6.59664 1.95903,15.21524 -4.63281,19.25 -6.59149,4.03552 -15.20677,1.95643 -19.23828,-4.64062 -4.02913,-6.59638 -1.9497,-15.21247 4.64063,-19.2461 2.16223,-1.32389 4.54051,-1.98846 6.90429,-2.05273 z"
         transform="scale(0.26458333)"
         inkscape:export-filename="C:\Users\aravi\Desktop\path968.png"
         inkscape:export-xdpi="300.10269"
         inkscape:export-ydpi="300.10269" />
      <path
         id="path1002"
         style="opacity:1;fill:#008080;stroke:none;stroke-width:0.642021;stroke-linecap:butt;stroke-linejoin:miter;stroke-miterlimit:4;stroke-dasharray:none;stroke-opacity:1"
         d="m 194.36719,693.08008 v 0.006 c -0.70855,10e-4 -1.37328,0.0195 -2.01758,0.0527 -2.57684,0.14136 -4.83852,0.56825 -6.63867,1.52149 -1.8,0.95319 -3.14598,2.43599 -3.81836,3.17968 -0.27288,0.30237 -0.40817,0.48513 -0.48633,0.67188 -0.065,0.0265 -0.1223,0.0451 -0.18164,0.0723 l -23.95508,38.82227 -0.14258,0.13867 c -0.1406,0.13947 -0.41981,0.4216 -2.36328,0.63477 -0.22072,0.0264 -0.6257,0.065 -0.88672,0.0801 -1.67814,0.008 -3.34854,0.19893 -4.98633,0.56445 -0.92738,0.15118 -1.85912,0.33179 -2.75,0.58789 -3.07135,0.88271 -5.61482,2.51165 -7.98046,4.49023 -2.36591,1.9787 -4.55695,4.31534 -6.04102,8.09766 -1.48422,3.7824 -2.26012,9.01491 -1.69531,13.22266 0.30236,2.2498 0.9996,4.18894 1.89648,5.90625 3.71641,8.61101 12.18432,14.18919 21.55664,14.20117 12.98846,0 23.51758,-10.53646 23.51758,-23.53516 -0.008,-1.67131 -0.19223,-3.33701 -0.55469,-4.96875 0.22337,-2.61774 0.82774,-5.71822 2.44141,-9.52734 3.14513,-7.42568 10.04514,-17.44192 13.97656,-22.86524 3.93143,-5.42324 4.85101,-6.19597 8.98438,-6.58398 4.13333,-0.3885 11.46111,-0.39149 15.56836,-0.35547 4.1074,0.034 4.95941,0.10826 5.20507,0.88477 0.24567,0.77642 -0.10674,2.25992 -6.25195,11.94726 -6.14634,9.68738 -18.09211,27.58526 -26.21484,39.81445 -8.12281,12.22935 -12.4384,18.81607 -14.69727,23.08985 -2.25887,4.27343 -2.4699,6.25464 -0.95117,10.14453 1.51873,3.88989 4.76117,9.66947 6.74414,12.68164 1.98285,3.01221 2.68385,3.22547 3.42774,3.1543 0.74411,-0.073 1.52008,-0.42378 11.97656,-15.94532 10.45651,-15.52183 30.55908,-46.15836 41.3164,-62.23632 10.75741,-16.07796 12.09814,-17.49057 13.75977,-18.44532 1.66159,-0.9547 3.64039,-1.44919 5.33789,-1.76757 1.69742,-0.31862 3.1031,-0.46202 5.04688,-0.63868 1.94373,-0.1765 4.42014,-0.3876 6.61132,-0.28125 2.19096,0.10621 4.08942,0.5321 5.57618,0.39063 1.48675,-0.14135 2.59393,-0.8823 5.18359,-4.04883 2.58962,-3.16634 6.83355,-8.77633 8.55664,-12.07226 1.58986,-3.0415 1.66248,-3.35619 -0.31641,-5.125 -23.73354,-2.37472 -22.66129,-1.91908 -85.52734,-5.65821 -2.38239,-0.14135 -4.3004,-0.22273 -5.94336,-0.27148 v 0.008 c -0.82152,-0.0189 -1.57465,-0.0391 -2.2832,-0.0391 z m -40.69727,53.875 c 7.72513,0.002 13.98678,6.26871 13.98633,14 4.5e-4,7.73125 -6.2612,14.00175 -13.98633,14.0039 -7.72694,4.6e-4 -13.99264,-6.27069 -13.99219,-14.0039 -4.5e-4,-7.73303 6.26525,-14.00046 13.99219,-14 z"
         transform="scale(0.26458333)"
         inkscape:export-filename="C:\Users\aravi\Desktop\path968.png"
         inkscape:export-xdpi="300.10269"
         inkscape:export-ydpi="300.10269" />
      <path
         id="path1008"
         style="opacity:1;fill:#33364d;fill-opacity:1;stroke:none;stroke-width:0.642021;stroke-linecap:butt;stroke-linejoin:miter;stroke-miterlimit:4;stroke-dasharray:none;stroke-opacity:1"
         d="m 242.82617,769.80469 c -0.43349,0.0305 -0.96075,0.17984 -1.66992,0.41211 -13.9564,19.35757 -13.02703,18.6548 -47.79102,71.20898 -1.31743,1.99162 -2.34474,3.61356 -3.21093,5.01172 h -0.008 c -0.86641,1.39812 -1.5554,2.57934 -2.14062,3.73047 -1.17052,2.30181 -1.93491,4.47903 -2.01367,6.51562 -0.082,2.03653 0.52543,3.94516 0.83203,4.90039 0.12435,0.38718 0.21272,0.59474 0.33594,0.75586 -0.008,0.065 -0.0198,0.1334 -0.0273,0.19727 l 21.54297,40.21094 0.0527,0.19336 c 0.0586,0.19162 0.15026,0.57172 -0.63868,2.36132 -0.0907,0.2041 -0.25644,0.5718 -0.36718,0.81055 -0.8329,1.45814 -1.50922,3.00164 -2.01368,4.60352 -0.33486,0.87896 -0.64756,1.77602 -0.87304,2.67578 -0.77681,3.10212 -0.64291,6.11937 -0.11914,9.16015 0.5238,3.04082 1.43978,6.11283 3.96484,9.29493 2.52514,3.18206 6.66134,6.47823 10.58203,8.09961 2.09605,0.86728 4.12029,1.23339 6.05469,1.31835 9.30765,1.10117 18.38245,-3.43035 23.09375,-11.53906 6.51439,-11.2453 2.68568,-25.65012 -8.55078,-32.16992 -1.4496,-0.83085 -2.98236,-1.50238 -4.57422,-2.00781 -2.15014,-1.50724 -4.53018,-3.58519 -7.01367,-6.89258 -4.84146,-6.44761 -10.03396,-17.44815 -12.75,-23.57227 -2.71624,-6.12396 -2.92728,-7.30881 -1.18946,-11.08203 1.73787,-3.77333 5.41311,-10.11977 7.50391,-13.6582 2.09068,-3.53839 2.58073,-4.23525 3.375,-4.05859 0.79393,0.1765 1.90213,1.22387 7.19336,11.40429 5.29126,10.18058 14.76854,29.49751 21.26563,42.66407 6.49715,13.1667 10.02658,20.2113 12.58789,24.31054 2.56134,4.09939 4.16664,5.27403 8.29101,5.91016 4.12426,0.63556 10.74921,0.72709 14.34766,0.52148 3.59837,-0.20523 4.13369,-0.70716 4.44531,-1.38672 0.31219,-0.67955 0.39577,-1.52863 -7.77734,-18.36718 -8.17285,-16.83863 -24.57352,-49.61024 -33.07618,-66.98828 -8.50269,-17.37801 -9.05113,-19.24859 -9.04296,-21.16602 0.008,-1.91751 0.57209,-3.87658 1.14843,-5.50586 0.57657,-1.62947 1.15842,-2.91979 1.98047,-4.69141 0.82216,-1.77146 1.88134,-4.01756 3.07227,-5.86132 1.19074,-1.84377 2.51377,-3.27449 3.13672,-4.63282 0.62286,-1.35855 0.53677,-2.69318 -0.90039,-6.52343 -1.43815,-3.83029 -4.15761,-10.316 -6.14258,-13.46094 -1.14297,-1.81105 -1.66587,-2.57771 -2.50977,-2.69727 h -0.004 c -0.1258,-0.0171 -0.25924,-0.0198 -0.40235,-0.01 z m -15.20312,133.87695 c 2.25467,0.065 4.52877,0.67271 6.61718,1.88477 6.68338,3.8773 8.96277,12.44327 5.08985,19.13281 -3.87526,6.69033 -12.43655,8.96896 -19.1211,5.08984 -6.68496,-3.87836 -8.96203,-12.44691 -5.08593,-19.13672 2.66509,-4.5976 7.53967,-7.10933 12.5,-6.9707 z"
         transform="scale(0.26458333)"
         inkscape:export-filename="C:\Users\aravi\Desktop\path968.png"
         inkscape:export-xdpi="300.10269"
         inkscape:export-ydpi="300.10269" />
      <path
         id="path1004"
         style="opacity:1;fill:#33364d;fill-opacity:1;stroke:none;stroke-width:0.642021;stroke-linecap:butt;stroke-linejoin:miter;stroke-miterlimit:4;stroke-dasharray:none;stroke-opacity:1"
         d="m 460.0625,730.85938 c -0.0943,-0.002 -0.18665,0.006 -0.2793,0.0176 -0.74146,0.096 -1.50678,0.47446 -11.45703,16.32617 -9.95025,15.85157 -29.05404,47.1219 -39.28711,63.53907 -10.23311,16.41724 -11.52629,17.87297 -13.15625,18.88086 -1.62996,1.00781 -3.58915,1.56431 -5.27539,1.9375 -1.68623,0.37341 -3.09026,0.56191 -5.02734,0.80078 -1.93701,0.23924 -4.40049,0.53128 -6.59375,0.49609 -2.19339,-0.034 -4.10654,-0.3994 -5.58789,-0.20898 -1.48135,0.18897 -2.56664,0.96848 -5.05274,4.21679 -2.48625,3.24839 -6.54831,8.98998 -8.16406,12.33985 -1.49099,3.09124 -1.55221,3.40755 0.48242,5.11133 23.79774,1.60622 22.71217,1.18875 85.66602,2.89453 2.38567,0.065 4.30539,0.081 5.94922,0.0723 v 0.004 c 1.64371,-0.004 3.01138,-0.0467 4.29687,-0.1582 2.57106,-0.22413 4.81949,-0.72557 6.58789,-1.73633 1.76822,-1.01084 3.06493,-2.53577 3.71289,-3.30078 0.26306,-0.31106 0.39774,-0.49529 0.46875,-0.68555 0.0522,-0.0265 0.12067,-0.0583 0.17774,-0.084 l 22.68945,-39.57422 0.13477,-0.14453 c 0.13493,-0.144 0.41069,-0.43357 2.3457,-0.70899 0.22035,-0.034 0.61876,-0.0819 0.87891,-0.11328 1.67712,-0.065 3.34178,-0.30772 4.96679,-0.72656 0.92209,-0.1818 1.8463,-0.39092 2.72852,-0.67578 3.04127,-0.98177 5.53511,-2.69196 7.83594,-4.7461 2.30075,-2.05413 4.41404,-4.45672 5.77539,-8.28515 1.36138,-3.82829 1.96796,-9.08415 1.26757,-13.27149 -0.37455,-2.23873 -1.13413,-4.15634 -2.08593,-5.84375 -3.99236,-8.48644 -12.63781,-13.79091 -22.00586,-13.5 -12.98155,0.41979 -23.16735,11.29134 -22.74805,24.2832 0.065,1.67025 0.30553,3.33203 0.71875,4.95118 -0.13946,2.62352 -0.64104,5.74427 -2.13086,9.60351 -2.90396,7.52342 -9.48186,17.75147 -13.23633,23.29883 -3.75435,5.54748 -4.64688,6.35373 -8.76562,6.875 -4.11867,0.5215 -11.4444,0.76036 -15.55078,0.85742 -4.10642,0.0971 -4.95978,0.0592 -5.23047,-0.71484 -0.27099,-0.76743 0.0386,-2.26555 5.86523,-12.14649 5.83068,-9.88089 17.19386,-28.15338 24.91797,-40.63867 7.72407,-12.48533 11.82553,-19.21012 13.94531,-23.55468 2.11983,-4.34453 2.26715,-6.32723 0.62305,-10.16602 -1.64338,-3.83883 -5.0733,-9.51254 -7.15234,-12.45898 -1.81923,-2.57828 -2.58775,-3.04903 -3.24805,-3.0625 z m 32.53906,43.24414 c 7.7229,-0.25021 14.1846,5.81586 14.4336,13.54492 0.2502,7.72913 -5.81023,14.19605 -13.53321,14.44531 -7.72119,0.24718 -14.1808,-5.81764 -14.42968,-13.54492 -0.25021,-7.72725 5.80828,-14.19364 13.52929,-14.44531 z"
         transform="scale(0.26458333)"
         inkscape:export-filename="C:\Users\aravi\Desktop\path968.png"
         inkscape:export-xdpi="300.10269"
         inkscape:export-ydpi="300.10269" />
      <path
         id="path996"
         style="opacity:1;fill:#008080;stroke:none;stroke-width:0.642021;stroke-linecap:butt;stroke-linejoin:miter;stroke-miterlimit:4;stroke-dasharray:none;stroke-opacity:1"
         d="m 417.59375,609.23438 c -8.68835,-0.0621 -16.77084,4.7012 -20.90625,12.45703 -6.10031,11.47578 -1.74788,25.725 9.71875,31.83007 1.47859,0.77742 3.03731,1.39476 4.64648,1.8418 2.20377,1.42776 4.6573,3.42035 7.25977,6.63477 5.07326,6.26642 10.66009,17.06909 13.59766,23.08984 2.93756,6.02075 3.1908,7.19313 1.59179,11.02734 -1.59915,3.83422 -5.03764,10.31147 -6.99804,13.92383 -1.96033,3.6124 -2.42449,4.3272 -3.22461,4.17969 -0.80032,-0.14778 -1.94654,-1.15432 -7.60547,-11.13477 -5.65871,-9.98044 -15.83173,-28.94071 -22.80469,-41.86132 -6.97281,-12.92062 -10.75767,-19.82703 -13.4668,-23.83008 -2.70906,-4.00305 -4.35529,-5.11842 -8.5,-5.60352 -4.14474,-0.48563 -10.76883,-0.33713 -14.35742,0 -3.58836,0.33751 -4.10793,0.85651 -4.39453,1.54688 -0.28687,0.69116 -0.33784,1.54536 8.44336,18.07422 8.78143,16.52882 26.36555,48.67639 35.49609,65.73242 9.13074,17.05595 9.74676,18.90773 9.8086,20.82422 0.065,1.91648 -0.43083,3.89174 -0.94727,5.54101 -0.51666,1.64931 -1.05381,2.96123 -1.81055,4.76172 -0.75685,1.80042 -1.73276,4.08461 -2.85546,5.9707 -1.12286,1.88603 -2.38984,3.36574 -2.96289,4.7461 -0.57272,1.38024 -0.4386,2.70915 1.13867,6.48437 1.57685,3.77511 4.53077,10.15799 6.6289,13.22852 1.93626,2.83313 2.17828,3.04673 4.66797,2.1289 13.24143,-19.85442 12.34124,-19.1215 45.16602,-72.91015 1.24392,-2.03834 2.20883,-3.69626 3.02344,-5.125 h 0.008 c 0.81486,-1.42885 1.46086,-2.63713 2.0039,-3.80859 1.08582,-2.34309 1.76692,-4.54393 1.77149,-6.58204 0.004,-2.03807 -0.66972,-3.92186 -1.00977,-4.86523 -0.13757,-0.38264 -0.23244,-0.58801 -0.36132,-0.74414 0.004,-0.0654 0.0195,-0.13459 0.0195,-0.19922 l -23,-39.39648 -0.0645,-0.18946 c -0.065,-0.18973 -0.1736,-0.57219 0.55078,-2.38867 0.0813,-0.20674 0.23938,-0.57903 0.3418,-0.82031 0.77953,-1.48747 1.39612,-3.05648 1.8418,-4.67578 0.30236,-0.89076 0.58057,-1.79566 0.77344,-2.70313 0.66349,-3.12831 0.42353,-6.14245 -0.21094,-9.16211 -0.63394,-3.01973 -1.66522,-6.05282 -4.30469,-9.14062 -2.63947,-3.08784 -6.89003,-6.22988 -10.86719,-7.70703 -2.12636,-0.79004 -4.16546,-1.0854 -6.10156,-1.09961 -0.58114,-0.0455 -1.15943,-0.0715 -1.73633,-0.0762 z m 0.60156,9.71874 c 2.25593,-0.0189 4.548,0.50755 6.67969,1.64258 6.82178,3.6316 9.41088,12.10866 5.78125,18.93555 -3.6302,6.82447 -12.1021,9.41484 -18.92187,5.7832 -6.82039,-3.63076 -9.40779,-12.10904 -5.78126,-18.93554 2.49472,-4.6938 7.27911,-7.38259 12.24219,-7.42579 z"
         transform="scale(0.26458333)"
         inkscape:export-filename="C:\Users\aravi\Desktop\path968.png"
         inkscape:export-xdpi="300.10269"
         inkscape:export-ydpi="300.10269" />
      <path
         id="path4548"
         style="opacity:1;fill:#33364d;fill-opacity:1;stroke:none;stroke-width:0.642021;stroke-linecap:butt;stroke-linejoin:miter;stroke-miterlimit:4;stroke-dasharray:none;stroke-opacity:1"
         d="m 244.98633,601.3457 c -1.0018,0.0219 -2.0546,0.13163 -3.17578,0.34961 -3.98635,0.77193 -8.81881,2.92088 -12.06641,5.65235 -1.73643,1.46033 -3.00013,3.08958 -3.96875,4.76757 -5.27441,7.75363 -5.4466,17.90118 -0.43555,25.82813 6.95785,10.97616 21.49152,14.22673 32.45899,7.26367 1.40545,-0.90263 2.71139,-1.95119 3.89453,-3.13086 2.32883,-1.21255 5.26763,-2.36387 9.3457,-3.04101 7.95024,-1.32008 20.09939,-0.85311 26.78125,-0.43555 6.6819,0.41718 7.82561,0.783 10.36719,4.06836 2.54154,3.28524 6.47031,9.47284 8.64062,12.96289 2.1704,3.48998 2.56246,4.24961 2.03907,4.87305 -0.5232,0.6232 -1.96347,1.12179 -13.42969,1.11718 -11.46618,-0.004 -32.96322,-0.51438 -47.63281,-0.82812 -14.66982,-0.31295 -22.54144,-0.43273 -27.35742,-0.0527 -4.81599,0.38004 -6.59988,1.26552 -9.06836,4.63282 -2.46853,3.36722 -5.60866,9.20279 -7.08789,12.49218 -1.47931,3.28933 -1.28302,3.99941 -0.82422,4.58985 0.45868,0.59059 1.17129,1.05475 19.86914,1.57617 18.698,0.5215 55.31606,1.09836 74.64453,1.57617 19.32828,0.47781 21.23986,0.85747 22.93555,1.75 1.69557,0.89258 3.16972,2.29472 4.34765,3.5586 1.17801,1.26391 2.05378,2.37982 3.24414,3.92773 1.19052,1.54791 2.69518,3.52508 3.7793,5.43359 1.08408,1.90855 1.74197,3.74341 2.6582,4.92383 0.91624,1.18031 2.13463,1.72068 6.19336,2.21289 4.05872,0.49282 11.06563,1.07123 14.76953,0.76172 3.41791,-0.28535 3.72403,-0.39524 4.15625,-3.01562 -10.71091,-21.32878 -10.51829,-20.17886 -41.04101,-75.3086 -1.15669,-2.08913 -2.11986,-3.74953 -2.95899,-5.16406 v 0.008 c -0.83935,-1.4146 -1.56854,-2.57586 -2.31836,-3.62695 -1.49952,-2.10202 -3.07715,-3.78247 -4.8457,-4.79297 -1.76859,-1.01053 -3.73886,-1.35558 -4.72656,-1.52539 -0.40067,-0.0722 -0.62534,-0.0917 -0.82422,-0.0527 -0.0586,-0.0393 -0.10535,-0.08 -0.16016,-0.11329 l -45.58984,0.55469 -0.19336,-0.0449 c -0.19276,-0.0457 -0.58191,-0.13488 -1.80273,-1.66211 -0.13871,-0.17348 -0.38272,-0.49525 -0.54297,-0.70312 -0.90769,-1.41264 -1.96366,-2.72252 -3.15039,-3.91016 -0.62484,-0.70303 -1.27724,-1.3922 -1.97071,-2.00781 -2.39032,-2.12259 -5.12366,-3.40251 -8.06054,-4.3418 -1.83557,-0.5873 -3.75385,-1.04287 -5.90625,-1.11328 v -0.002 c -0.32286,-0.0114 -0.6524,-0.0151 -0.98633,-0.008 z m 1.20898,9.36328 c 4.4894,0.12964 8.83697,2.41455 11.42383,6.4961 4.13666,6.52951 2.20086,15.18096 -4.32226,19.32226 -6.5229,4.14203 -15.16854,2.20896 -19.3086,-4.31836 -4.1399,-6.52962 -2.20106,-15.18396 4.32422,-19.32617 2.44664,-1.55361 5.18914,-2.25153 7.88281,-2.17383 z"
         transform="scale(0.26458333)"
         inkscape:export-filename="C:\Users\aravi\Desktop\path968.png"
         inkscape:export-xdpi="300.10269"
         inkscape:export-ydpi="300.10269" />
      <g
         inkscape:export-ydpi="300.10269"
         inkscape:export-xdpi="300.10269"
         inkscape:export-filename="C:\Users\aravi\Desktop\path968.png"
         transform="matrix(2.239677,0.25508567,-0.25528824,2.2414556,596.95193,-124.21547)"
         id="g1046"
         style="stroke-width:0.443455">
        <path
           id="path938-1"
           d="m -215.58962,176.45181 c -0.27274,-0.5694 -0.24023,-1.42464 0.0899,-2.36927 0.14617,-0.41835 0.33898,-0.83608 0.67896,-1.47115 0.16686,-0.31201 0.30641,-0.60001 0.30996,-0.64021 0.006,-0.0704 -0.008,-0.0841 -0.36516,-0.34903 -0.20417,-0.15178 -0.50316,-0.39714 -0.66388,-0.54544 -0.40541,-0.37365 -1.04579,-1.08044 -1.22934,-1.35662 -0.25358,-0.38213 -0.4289,-0.89439 -0.43608,-1.27545 -0.0104,-0.54413 0.16432,-0.89982 0.65476,-1.33331 l 0.26828,-0.23832 0.0248,0.13279 c 0.0137,0.0732 0.0473,0.18323 0.0745,0.24475 0.089,0.20156 0.0874,0.19247 0.0348,0.18852 -0.11634,-0.009 -0.41482,0.34243 -0.4991,0.58858 -0.10585,0.30826 -0.0466,0.77638 0.14842,1.1715 0.20301,0.41146 0.86621,1.17253 1.43281,1.64264 0.30825,0.25653 0.8412,0.64283 0.89222,0.64679 0.0188,10e-4 0.13251,-0.12435 0.25117,-0.28176 0.33308,-0.43509 0.55981,-0.72017 0.87107,-1.09508 0.4768,-0.57411 0.44068,-0.47339 0.39619,-1.10464 -0.0214,-0.30226 -0.0487,-0.8708 -0.0609,-1.26337 -0.0122,-0.39258 -0.0307,-0.74388 -0.0412,-0.78067 -0.0239,-0.0835 -0.19696,-0.12113 -0.58824,-0.12778 l -0.2665,-0.004 -0.0131,-0.18877 c -0.007,-0.10394 -0.0203,-0.21871 -0.0291,-0.25552 -0.015,-0.0625 0.006,-0.0656 0.33887,-0.0488 0.19503,0.01 0.41498,0.0163 0.48846,0.0144 l 0.13378,-0.003 0.0485,-0.39078 c 0.2203,-1.77272 0.66391,-2.83195 1.45351,-3.47058 0.25551,-0.20561 0.25847,-0.20815 0.55584,-0.28096 0.44193,-0.10841 0.70973,-0.0758 1.14145,0.13924 0.79106,0.39399 1.29084,0.92125 2.1371,2.25481 0.18161,0.2862 0.33585,0.52043 0.34276,0.52049 0.008,6.4e-4 0.30172,-0.11771 0.65532,-0.26171 0.35352,-0.14408 0.80491,-0.31338 1.00294,-0.37641 1.14851,-0.36554 2.15426,-0.3503 2.70131,0.0409 0.13096,0.0937 0.22003,0.18374 0.36579,0.37019 0.21609,0.27724 0.28704,0.43812 0.3412,0.78206 l 0.0333,0.21044 -0.087,-0.0293 c -0.0474,-0.0168 -0.15972,-0.0346 -0.24862,-0.041 l -0.16186,-0.0116 -0.0857,-0.25825 c -0.0736,-0.222 -0.10727,-0.28343 -0.24048,-0.43949 -0.1414,-0.16524 -0.17436,-0.19073 -0.38294,-0.27847 -0.28312,-0.12052 -0.63359,-0.15225 -1.08205,-0.0982 -0.6,0.0724 -1.5378,0.36763 -2.19538,0.69117 -0.28469,0.14011 -0.32074,0.16461 -0.33988,0.23049 -0.0154,0.0534 0.0322,0.2088 0.1705,0.55817 0.10556,0.26642 0.30498,0.80481 0.44309,1.1966 0.13816,0.39182 0.26205,0.72481 0.2752,0.74012 0.0125,0.0146 0.33464,0.18936 0.71421,0.38691 0.37964,0.19743 0.81089,0.42893 0.95835,0.51441 0.35407,0.20518 0.41814,0.23291 0.4803,0.20641 0.0638,-0.0259 0.0694,-0.0342 0.35869,-0.52975 0.21719,-0.37023 0.22788,-0.39717 0.18242,-0.4531 -0.0448,-0.0537 -0.0394,-0.055 0.0483,-0.005 0.17474,0.0972 0.35199,0.15926 0.51534,0.18028 0.0884,0.0113 0.14677,0.0249 0.12993,0.03 -0.018,0.005 -0.0683,0.0184 -0.11404,0.0301 -0.0763,0.019 -0.10822,0.0641 -0.369,0.5303 -0.15695,0.28031 -0.27887,0.528 -0.27093,0.5504 0.008,0.0218 0.21963,0.20522 0.47002,0.40622 0.59654,0.47861 0.68447,0.55618 1.07624,0.95056 0.36568,0.36807 0.66077,0.73944 0.82819,1.04088 0.33808,0.60958 0.41392,1.29925 0.19842,1.80483 -0.10144,0.2381 -0.44474,0.60477 -0.74655,0.79743 -0.6426,0.41047 -1.64336,0.60747 -3.09156,0.60896 -0.2753,3.1e-4 -0.51105,0.009 -0.52356,0.0199 -0.0126,0.0108 -0.0512,0.22845 -0.0859,0.48374 -0.1456,1.07016 -0.37623,1.86455 -0.7259,2.50021 -0.30021,0.5456 -0.7002,0.96099 -1.01894,1.05786 -0.50515,0.1533 -0.93822,0.14943 -1.32625,-0.0121 l -0.21737,-0.0902 0.0811,-0.0696 c 0.0446,-0.0383 0.12095,-0.1255 0.16839,-0.19511 l 0.0873,-0.12547 0.0805,0.0384 c 0.044,0.0214 0.21434,0.0531 0.37772,0.0712 0.32514,0.036 0.48245,-5.9e-4 0.73787,-0.17108 0.3948,-0.26368 0.77707,-0.94143 1.00881,-1.78863 0.15556,-0.56904 0.2939,-1.37883 0.27909,-1.6338 l -0.007,-0.12337 -0.13495,-0.0288 c -0.074,-0.0159 -0.33842,-0.0621 -0.58725,-0.10305 -0.44952,-0.0737 -1.46317,-0.263 -1.65404,-0.30887 -0.12017,-0.0288 -0.16554,-0.005 -0.80686,0.43591 -0.25772,0.17692 -0.66469,0.44696 -0.90448,0.59994 -0.61638,0.39324 -0.58756,0.34566 -0.4176,0.6901 0.15598,0.31591 0.24669,0.4411 0.32665,0.45017 0.0438,0.005 0.0422,0.0107 -0.006,0.0269 -0.0313,0.013 -0.14632,0.0874 -0.25371,0.16807 -0.18445,0.1368 -0.19659,0.14353 -0.22377,0.0902 -0.12785,-0.25124 -0.44747,-0.77325 -0.47397,-0.77438 -0.0188,-10e-4 -0.26213,0.0983 -0.54192,0.2203 -1.58619,0.69094 -2.72559,0.86544 -3.54087,0.54232 -0.35218,-0.13946 -0.66152,-0.41485 -0.8064,-0.71731 z m 0.76264,0.1312 c 0.54302,0.37232 1.5038,0.31756 2.77946,-0.15831 0.47852,-0.17848 0.99392,-0.40788 1.07709,-0.47931 0.0444,-0.0381 0.0317,-0.0872 -0.11704,-0.44905 -0.0916,-0.22349 -0.30346,-0.7848 -0.47042,-1.24744 -0.16685,-0.46273 -0.31674,-0.85649 -0.33282,-0.87522 -0.0161,-0.0187 -0.20071,-0.11934 -0.4099,-0.22372 -0.20925,-0.10443 -0.67893,-0.35001 -1.04352,-0.54596 -0.39075,-0.20996 -0.67807,-0.3478 -0.69984,-0.33563 -0.0207,0.01 -0.15109,0.22335 -0.29035,0.47106 -0.61513,1.09357 -0.9143,1.92903 -0.94929,2.65119 -0.0147,0.30037 0.0292,0.62746 0.10791,0.80551 0.0516,0.11677 0.20847,0.29078 0.34932,0.38631 z m 4.47148,-0.99118 c 0.20893,-0.0678 1.53259,-0.94811 1.56698,-1.04217 0.0171,-0.0436 -0.0364,-0.068 -0.37624,-0.17473 -0.21723,-0.0676 -0.73141,-0.24213 -1.1425,-0.38755 -0.84644,-0.29937 -0.88538,-0.31067 -0.88823,-0.25709 -0.006,0.11279 0.60685,1.74266 0.69332,1.84379 0.0319,0.0373 0.0722,0.0416 0.14662,0.0178 z m -2.83104,-3.47027 c 0.57019,0.32384 1.01363,0.54815 1.0525,0.53227 0.0399,-0.0167 0.0169,-0.20234 -0.10285,-0.82723 -0.14878,-0.77615 -0.30761,-1.47282 -0.33626,-1.47499 -0.049,-0.004 -0.16654,0.13249 -0.62908,0.72399 -0.24923,0.31898 -0.45967,0.5861 -0.46795,0.59321 -0.009,0.008 -0.0164,0.043 -0.0197,0.0779 -0.006,0.0806 0.0201,0.0999 0.5034,0.37475 z m 2.29797,1.11171 c 0.87781,0.3403 1.35379,0.50299 2.49284,0.85204 l 0.18572,0.0567 0.30311,-0.23502 c 0.48306,-0.3756 2.06647,-1.85178 2.22867,-2.07773 0.042,-0.0577 0.042,-0.1364 0.002,-0.39355 -0.0684,-0.43673 -0.2811,-1.51666 -0.43805,-2.22491 -0.10782,-0.48646 -0.14151,-0.59376 -0.20313,-0.64689 -0.24834,-0.21441 -2.71761,-1.08774 -3.16789,-1.12028 l -0.11989,-0.009 -0.66444,0.59596 c -0.85981,0.77101 -1.65021,1.5151 -1.72994,1.62915 -0.0788,0.11287 -0.0694,0.3001 0.0483,0.98146 0.14219,0.82204 0.46706,2.30711 0.51737,2.3652 0.0107,0.0124 0.25681,0.11485 0.54598,0.22707 z m -1.11206,-4.30989 c 0.14841,-0.12847 1.12561,-1.03211 1.49369,-1.38172 0.19816,-0.18772 0.27466,-0.27518 0.25837,-0.29414 -0.0556,-0.0648 -1.89532,-0.36028 -1.95011,-0.31326 -0.0599,0.0515 -0.008,1.98484 0.0553,2.05871 0.0192,0.0224 0.0583,0.003 0.14259,-0.0696 z m 4.93984,5.47683 c 0.36299,0.0673 1.32697,0.20881 1.43539,0.21086 l 0.0848,0.002 0.0184,-0.20613 c 0.0409,-0.45453 0.005,-1.78463 -0.0501,-1.84854 -0.0216,-0.0251 -0.0978,0.0307 -0.40924,0.29809 -0.4071,0.34952 -1.4819,1.34287 -1.5181,1.40309 -0.0268,0.0446 0.0487,0.069 0.4386,0.14124 z m -4.79152,-7.95244 c 0.82143,0.13412 1.2324,0.20798 1.69643,0.30501 0.28233,0.059 0.52699,0.0957 0.54355,0.0815 0.0755,-0.0648 1.21348,-0.83859 1.60221,-1.0894 0.23797,-0.1535 0.44792,-0.30126 0.46665,-0.32815 0.038,-0.0543 -0.0197,-0.1763 -0.34368,-0.72998 -0.16182,-0.27651 -0.24626,-0.3865 -0.70873,-0.92358 -0.59386,-0.68993 -0.72481,-0.80557 -1.10681,-0.97469 -0.27387,-0.12152 -0.4822,-0.16045 -0.69642,-0.12957 -0.84276,0.12119 -1.43328,1.19328 -1.73209,3.14504 -0.0585,0.38174 -0.0639,0.52459 -0.0219,0.57348 0.0126,0.0146 0.14698,0.0456 0.30074,0.0706 z m 7.96279,8.24812 c 0.43893,-0.0153 0.83251,-0.0671 1.26592,-0.16677 1.30032,-0.29895 1.79525,-0.8673 1.55295,-1.78327 -0.11227,-0.42433 -0.23866,-0.63412 -0.72007,-1.19422 -0.34995,-0.40712 -0.44775,-0.50322 -0.76667,-0.76849 -0.45215,-0.3739 -0.90365,-0.71256 -0.96337,-0.72329 -0.0501,-0.009 -0.0452,-0.0142 -0.44244,0.4869 -0.15266,0.19254 -0.44697,0.55727 -0.65403,0.81013 -0.20702,0.25293 -0.39835,0.48803 -0.42515,0.52253 -0.0363,0.045 -0.0419,0.18254 -0.023,0.51068 0.014,0.24643 0.0368,0.78876 0.0504,1.2052 0.0136,0.41639 0.0302,0.82728 0.0372,0.91294 l 0.0125,0.15562 0.37893,0.0215 c 0.20863,0.0119 0.52209,0.0166 0.69682,0.0105 z m -4.13128,-7.34886 c 0.47287,0.16154 0.99703,0.34067 1.16502,0.3979 0.16793,0.0573 0.31406,0.0938 0.3245,0.0813 0.0358,-0.0413 -0.54113,-1.63074 -0.67691,-1.86554 -0.0528,-0.0913 -0.0542,-0.0929 -0.15115,-0.034 -0.46492,0.28013 -1.47686,0.93515 -1.57384,1.01844 -0.0352,0.0302 -0.0347,0.0474 0.004,0.0739 0.0269,0.0191 0.43613,0.16651 0.90895,0.32808 z m 2.94039,3.80966 c 0.15164,-0.13024 1.04146,-1.31651 1.04861,-1.39792 0.006,-0.0653 -1.57007,-0.94545 -1.60075,-0.89418 -0.0249,0.043 0.40621,2.29141 0.45098,2.35006 0.006,0.008 0.0528,-0.0165 0.10103,-0.0579 z"
           style="fill:#008080;fill-opacity:0.941176;stroke-width:0.0131688"
           inkscape:export-filename="C:\Users\aravi\Desktop\path968.png"
           inkscape:export-xdpi="300.10269"
           inkscape:export-ydpi="300.10269" />
        <ellipse
           transform="rotate(49.342218)"
           cy="271.70264"
           cx="-13.556026"
           id="path984-7"
           style="fill:#33364d;fill-opacity:1;stroke:none;stroke-width:0.328406;stroke-opacity:1"
           rx="1.3131559"
           ry="1.3310422"
           inkscape:export-filename="C:\Users\aravi\Desktop\path968.png"
           inkscape:export-xdpi="300.10269"
           inkscape:export-ydpi="300.10269" />
        <ellipse
           transform="rotate(49.342218)"
           style="fill:#33364d;fill-opacity:1;stroke:none;stroke-width:0.328406;stroke-opacity:1"
           id="circle986-1"
           cx="-1.1718407"
           cy="274.78323"
           rx="1.3131559"
           ry="1.3310422"
           inkscape:export-filename="C:\Users\aravi\Desktop\path968.png"
           inkscape:export-xdpi="300.10269"
           inkscape:export-ydpi="300.10269" />
        <ellipse
           transform="rotate(49.342218)"
           cy="262.43558"
           cx="-5.0797234"
           id="circle988-6"
           style="fill:#33364d;fill-opacity:1;stroke:none;stroke-width:0.328406;stroke-opacity:1"
           rx="1.3131559"
           ry="1.3310422"
           inkscape:export-filename="C:\Users\aravi\Desktop\path968.png"
           inkscape:export-xdpi="300.10269"
           inkscape:export-ydpi="300.10269" />
        <path
           id="path990-2"
           d="m -210.76777,171.97292 c -0.31752,-0.52227 -0.41196,-1.13233 -0.26462,-1.71081 0.12105,-0.4752 0.31465,-0.79492 0.68684,-1.13423 0.65353,-0.59727 1.54785,-0.7582 2.35823,-0.42686 0.36603,0.14966 0.56738,0.30015 0.84406,0.63083 0.40141,0.47965 0.53778,0.89801 0.50194,1.53811 -0.0355,0.63341 -0.2617,1.11877 -0.71423,1.53216 -0.28421,0.25793 -0.51757,0.38784 -0.92162,0.50773 -0.62494,0.18544 -1.27231,0.0932 -1.81919,-0.2593 -0.24126,-0.15582 -0.53261,-0.44957 -0.67136,-0.67779 z m 1.03934,0.2919 c 0.10579,0.0615 0.31626,0.14233 0.46754,0.18008 0.30231,0.0754 0.58799,0.0557 0.96804,-0.0664 0.85742,-0.27543 1.34865,-1.22302 1.08582,-2.09408 -0.28434,-0.94235 -1.17732,-1.42237 -2.1375,-1.14943 -0.28857,0.082 -0.31704,0.0972 -0.56072,0.30137 -0.31072,0.25896 -0.44967,0.44407 -0.57009,0.75282 -0.1716,0.44057 -0.12722,1.03401 0.10854,1.45104 0.12754,0.22554 0.38514,0.47821 0.63856,0.6247 z"
           style="fill:#33364d;fill-opacity:1;stroke:none;stroke-width:0.886898;stroke-miterlimit:4;stroke-dasharray:none;stroke-opacity:1"
           inkscape:export-filename="C:\Users\aravi\Desktop\path968.png"
           inkscape:export-xdpi="300.10269"
           inkscape:export-ydpi="300.10269" />
      </g>
    </g>
  </g>
</svg>
