<?xml version="1.0" encoding="UTF-8" standalone="no"?>
<svg
   xmlns:dc="http://purl.org/dc/elements/1.1/"
   xmlns:cc="http://creativecommons.org/ns#"
   xmlns:rdf="http://www.w3.org/1999/02/22-rdf-syntax-ns#"
   xmlns:svg="http://www.w3.org/2000/svg"
   xmlns="http://www.w3.org/2000/svg"
   xmlns:sodipodi="http://sodipodi.sourceforge.net/DTD/sodipodi-0.dtd"
   xmlns:inkscape="http://www.inkscape.org/namespaces/inkscape"
   sodipodi:docname="Finalized Logo -ve.svg"
   inkscape:version="1.0 (4035a4fb49, 2020-05-01)"
   id="svg1560"
   version="1.1"
   viewBox="0 0 567.12988 160.89626"
   height="160.89626mm"
   width="567.12988mm">
  <defs
     id="defs1554" />
  <sodipodi:namedview
     fit-margin-bottom="0"
     fit-margin-right="0"
     fit-margin-left="0"
     fit-margin-top="0"
     showgrid="false"
     inkscape:document-rotation="0"
     inkscape:current-layer="layer1"
     inkscape:document-units="mm"
     inkscape:cy="560"
     inkscape:cx="400"
     inkscape:zoom="0.35"
     inkscape:pageshadow="2"
     inkscape:pageopacity="0.0"
     borderopacity="1.0"
     bordercolor="#666666"
     pagecolor="#ffffff"
     id="base" />
  <metadata
     id="metadata1557">
    <rdf:RDF>
      <cc:Work
         rdf:about="">
        <dc:format>image/svg+xml</dc:format>
        <dc:type
           rdf:resource="http://purl.org/dc/dcmitype/StillImage" />
        <dc:title></dc:title>
      </cc:Work>
    </rdf:RDF>
  </metadata>
  <g
     transform="translate(77.189942,-45.039968)"
     id="layer1"
     inkscape:groupmode="layer"
     inkscape:label="Layer 1">
    <g
       transform="translate(-96.76256,-155.85882)"
       inkscape:export-ydpi="29.994484"
       inkscape:export-xdpi="29.994484"
       id="g955">
      <rect
         style="fill:#33364d;fill-opacity:1;stroke-width:2.64583;stop-color:#000000"
         id="rect873"
         width="567.12988"
         height="160.89626"
         x="19.572618"
         y="200.89879"
         inkscape:export-filename="C:\Users\aravi\Desktop\path968.png"
         inkscape:export-xdpi="300.10269"
         inkscape:export-ydpi="300.10269" />
      <path
         id="path875"
         style="font-style:normal;font-variant:normal;font-weight:bold;font-stretch:normal;font-size:20.5674px;line-height:1.25;font-family:Dubai;-inkscape-font-specification:'Dubai, Bold';font-variant-ligatures:normal;font-variant-caps:normal;font-variant-numeric:normal;font-feature-settings:normal;text-align:start;letter-spacing:0px;word-spacing:0px;writing-mode:lr-tb;text-anchor:start;fill:#ffffff;fill-opacity:1;stroke:none;stroke-width:1.77825"
         d="m 139.11253,235.10958 v 16.08694 h 27.49933 v 70.06579 h 18.86435 v -70.06579 h 24.28253 l 5.85253,-16.08694 z"
         inkscape:export-filename="C:\Users\aravi\Desktop\path968.png"
         inkscape:export-xdpi="300.10269"
         inkscape:export-ydpi="300.10269"
         sodipodi:nodetypes="ccccccccc" />
      <path
         inkscape:connector-curvature="0"
         id="path877"
         style="font-style:normal;font-variant:normal;font-weight:bold;font-stretch:normal;font-size:20.5674px;line-height:1.25;font-family:Dubai;-inkscape-font-specification:'Dubai, Bold';font-variant-ligatures:normal;font-variant-caps:normal;font-variant-numeric:normal;font-feature-settings:normal;text-align:start;letter-spacing:0px;word-spacing:0px;writing-mode:lr-tb;text-anchor:start;fill:#ffffff;fill-opacity:1;stroke:none;stroke-width:1.77825"
         d="m 244.10219,235.10913 30.9532,85.08919 0.414,1.06361 h -20.47381 l -6.90799,-20.60755 h -31.88313 l -6.77516,20.60755 h -20.21933 l 0.42522,-1.06361 30.95319,-85.08919 z m -22.84957,50.38874 h 21.7868 l -11.02625,-32.8391 z"
         inkscape:export-filename="C:\Users\aravi\Desktop\path968.png"
         inkscape:export-xdpi="300.10269"
         inkscape:export-ydpi="300.10269"
         sodipodi:nodetypes="ccccccccccccccc" />
      <path
         id="path879"
         style="font-style:normal;font-variant:normal;font-weight:bold;font-stretch:normal;font-size:20.5674px;line-height:1.25;font-family:Dubai;-inkscape-font-specification:'Dubai, Bold';font-variant-ligatures:normal;font-variant-caps:normal;font-variant-numeric:normal;font-feature-settings:normal;text-align:start;letter-spacing:0px;word-spacing:0px;writing-mode:lr-tb;text-anchor:start;fill:#f9f9f9;fill-opacity:1;stroke:none;stroke-width:1.77825"
         d="m 302.34824,233.24734 c -8.05935,0 -15.40983,1.63981 -22.05215,4.91929 -6.55377,3.19084 -11.82338,8.15493 -15.80876,14.89115 -2.09933,3.50166 -3.63911,7.46308 -4.6326,11.87468 l 19.35463,53.20519 c 6.20663,3.32288 13.60918,4.98594 22.20946,4.98594 1.85984,0 3.23257,-0.0447 4.11818,-0.13332 l 8.00573,5.52779 h 34.07253 l -1.29494,-0.7418 -21.65355,-11.03435 c 6.19951,-3.81128 11.15963,-8.95208 14.87932,-15.42238 3.7197,-6.55898 5.5794,-14.18228 5.5794,-22.86846 0,-8.9521 -1.63852,-16.79581 -4.91539,-23.53204 -3.1883,-6.82486 -8.01555,-12.14332 -14.48072,-15.9546 -6.37663,-3.81128 -14.17045,-5.71711 -23.38114,-5.71711 z m 0,15.4224 c 7.61651,0 13.41774,2.65922 17.40314,7.9773 3.9854,5.22943 5.978,12.54208 5.978,21.93733 0,5.93853 -0.92938,11.12398 -2.78924,15.55569 -1.77127,4.34309 -4.51665,7.71105 -8.23637,10.1042 -3.63112,2.30449 -8.05966,3.45692 -13.28495,3.45692 -7.70508,0 -13.54997,-2.61551 -17.53537,-7.84496 -3.9854,-5.31807 -5.97895,-12.6744 -5.97895,-22.06966 0,-9.04074 2.08184,-16.13104 6.24436,-21.27184 4.16252,-5.22945 10.2286,-7.84498 18.19938,-7.84498 z"
         inkscape:export-filename="C:\Users\aravi\Desktop\path968.png"
         inkscape:export-xdpi="300.10269"
         inkscape:export-ydpi="300.10269"
         sodipodi:nodetypes="sccccsccccccsccssscsccscscs" />
      <path
         id="path881"
         style="font-style:normal;font-variant:normal;font-weight:bold;font-stretch:normal;font-size:20.5674px;line-height:1.25;font-family:Dubai;-inkscape-font-specification:'Dubai, Bold';font-variant-ligatures:normal;font-variant-caps:normal;font-variant-numeric:normal;font-feature-settings:normal;text-align:start;letter-spacing:0px;word-spacing:0px;writing-mode:lr-tb;text-anchor:start;fill:#f9f9f9;fill-opacity:1;stroke:none;stroke-width:1.77825"
         d="m 327.40833,235.10958 c 6.27893,4.05536 11.07691,9.39107 14.47496,16.08694 h 35.97539 l -40.78595,61.02504 v 9.04075 h 65.74831 v -16.0879 h -41.4351 l 41.4351,-61.02408 v -9.04075 z"
         sodipodi:nodetypes="ccccccccccc"
         inkscape:export-filename="C:\Users\aravi\Desktop\path968.png"
         inkscape:export-xdpi="300.10269"
         inkscape:export-ydpi="300.10269" />
      <path
         inkscape:connector-curvature="0"
         id="path883"
         style="font-style:normal;font-variant:normal;font-weight:bold;font-stretch:normal;font-size:20.5674px;line-height:1.25;font-family:Dubai;-inkscape-font-specification:'Dubai, Bold';font-variant-ligatures:normal;font-variant-caps:normal;font-variant-numeric:normal;font-feature-settings:normal;text-align:start;letter-spacing:0px;word-spacing:0px;writing-mode:lr-tb;text-anchor:start;fill:#007575;fill-opacity:1;stroke:none;stroke-width:1.77825"
         d="m 406.29363,321.26193 v -86.1528 h 18.86419 v 86.1528 z"
         inkscape:export-filename="C:\Users\aravi\Desktop\path968.png"
         inkscape:export-xdpi="300.10269"
         inkscape:export-ydpi="300.10269" />
      <path
         id="path885"
         style="font-style:normal;font-variant:normal;font-weight:bold;font-stretch:normal;font-size:20.5674px;line-height:1.25;font-family:Dubai;-inkscape-font-specification:'Dubai, Bold';font-variant-ligatures:normal;font-variant-caps:normal;font-variant-numeric:normal;font-feature-settings:normal;text-align:start;letter-spacing:0px;word-spacing:0px;writing-mode:lr-tb;text-anchor:start;display:inline;fill:#ffffff;fill-opacity:1;stroke:none;stroke-width:1.89186"
         d="m 428.85662,235.10958 v 86.15273 h 46.24955 l 1.00226,-2.05155 5.83326,-14.16867 h -45.21121 v -69.93251 z"
         inkscape:export-filename="C:\Users\aravi\Desktop\path968.png"
         inkscape:export-xdpi="300.10269"
         inkscape:export-ydpi="300.10269"
         sodipodi:nodetypes="cccccccc" />
      <path
         inkscape:connector-curvature="0"
         id="path887"
         style="font-style:normal;font-variant:normal;font-weight:bold;font-stretch:normal;font-size:20.5674px;line-height:1.25;font-family:Dubai;-inkscape-font-specification:'Dubai, Bold';font-variant-ligatures:normal;font-variant-caps:normal;font-variant-numeric:normal;font-feature-settings:normal;text-align:start;letter-spacing:0px;word-spacing:0px;writing-mode:lr-tb;text-anchor:start;fill:#ffffff;fill-opacity:1;stroke:none;stroke-width:1.77825"
         d="m 534.80991,235.10913 30.95321,85.08919 0.44885,1.06361 h -20.50869 l -6.90794,-20.60755 h -31.88318 l -6.77514,20.60755 h -20.24298 l 0.44885,-1.06361 30.95318,-85.08919 z m -22.84959,50.38874 h 21.78685 l -11.02628,-32.8391 z"
         inkscape:export-filename="C:\Users\aravi\Desktop\path968.png"
         inkscape:export-xdpi="300.10269"
         inkscape:export-ydpi="300.10269"
         sodipodi:nodetypes="ccccccccccccccc" />
      <path
         inkscape:export-ydpi="300.10269"
         inkscape:export-xdpi="300.10269"
         inkscape:export-filename="C:\Users\aravi\Desktop\path968.png"
         d="m 73.847244,300.23571 c -0.146664,8e-4 -0.283009,0.005 -0.405659,0.014 -0.90542,0.0607 -0.985859,0.0881 -1.11156,0.77928 2.741179,5.68886 2.694125,5.3843 10.530107,20.1011 0.296879,0.55776 0.544785,1.00138 0.760677,1.37924 v 0.001 c 0.21585,0.37785 0.404583,0.68763 0.598414,0.96893 0.387609,0.56258 0.796906,1.01537 1.260387,1.29036 0.463489,0.275 0.9833,0.37402 1.243852,0.42323 0.105669,0.0191 0.16579,0.0263 0.21859,0.017 0.0155,0.009 0.02837,0.0217 0.04238,0.031 l 12.061796,0.0501 0.05116,0.0124 c 0.0508,0.0121 0.1529,0.0374 0.469222,0.447 0.0362,0.0466 0.09975,0.13289 0.141076,0.18862 0.234058,0.37765 0.508204,0.72867 0.817004,1.048 0.16204,0.18865 0.33083,0.37466 0.51159,0.54054 0.62317,0.57188 1.34171,0.92111 2.1146,1.18235 0.77286,0.26124 1.60188,0.43447 2.65979,0.24753 1.05793,-0.18697 2.34485,-0.73377 3.21582,-1.44229 0.46568,-0.3788 0.80727,-0.80419 1.07074,-1.24385 1.42892,-2.02834 1.51824,-4.71231 0.22686,-6.8311 -1.79316,-2.9339 -5.62347,-3.85748 -8.55504,-2.06293 -0.3757,0.2328 -0.72526,0.50435 -1.04334,0.81132 -0.62139,0.31062 -1.404368,0.60332 -2.486152,0.76481 -2.10893,0.31474 -5.319979,0.13705 -7.085872,-0.002 -1.76584,-0.13935 -2.067274,-0.24011 -2.725415,-1.12035 -0.658151,-0.88009 -1.67183,-2.53479 -2.230871,-3.46748 -0.55907,-0.93267 -0.658908,-1.1344 -0.517798,-1.29708 0.141179,-0.16281 0.524076,-0.28863 3.557405,-0.23771 3.033334,0.0511 8.718196,0.27928 12.597673,0.42581 3.87949,0.14643 5.96156,0.21149 7.23729,0.13177 1.27569,-0.08 1.75083,-0.30536 2.41845,-1.18545 0.66761,-0.8801 1.52401,-2.41151 1.9296,-3.27526 0.40557,-0.86377 0.35698,-1.05103 0.23823,-1.20923 -0.11877,-0.15816 -0.30507,-0.28531 -5.24929,-0.50436 -4.94423,-0.21909 -14.629192,-0.52926 -19.740394,-0.73949 -5.111218,-0.21024 -5.615374,-0.31872 -6.060096,-0.56224 -0.444699,-0.24352 -0.82917,-0.6217 -1.13533,-0.96118 -0.306149,-0.33945 -0.532008,-0.63798 -0.840258,-1.05265 -0.3082,-0.41465 -0.697111,-0.94405 -0.975651,-1.45365 -0.278562,-0.50961 -0.445297,-0.99743 -0.682647,-1.31362 -0.237159,-0.31626 -0.557241,-0.46453 -1.628841,-0.61237 -0.803719,-0.1109 -2.046091,-0.2423 -3.030823,-0.27336 v -10e-4 c -0.164118,-0.005 -0.321006,-0.008 -0.467672,-0.007 z m 30.903026,18.91668 c 0.0893,-0.002 0.17815,-0.001 0.26717,0.003 1.18686,0.0535 2.32725,0.67688 2.99413,1.76733 1.06691,1.74536 0.51832,4.0257 -1.22577,5.09323 -1.744,1.06773 -4.02346,0.51764 -5.09013,-1.22783 -1.06604,-1.74529 -0.51585,-4.02497 1.22784,-5.0922 0.57209,-0.35028 1.20134,-0.52611 1.82676,-0.54312 z"
         style="fill:#008080;stroke:none;stroke-width:0.169868;stroke-linecap:butt;stroke-linejoin:miter;stroke-miterlimit:4;stroke-dasharray:none;stroke-opacity:1"
         id="path889" />
      <path
         inkscape:export-ydpi="300.10269"
         inkscape:export-xdpi="300.10269"
         inkscape:export-filename="C:\Users\aravi\Desktop\path968.png"
         d="m 50.670366,259.72863 v 0.002 c -0.187471,2.6e-4 -0.363347,0.005 -0.533818,0.0139 -0.681789,0.0374 -1.280192,0.15035 -1.756481,0.40256 -0.47625,0.2522 -0.832374,0.64452 -1.010275,0.84129 -0.0722,0.08 -0.107995,0.12836 -0.128675,0.17777 -0.0172,0.007 -0.03236,0.0119 -0.04806,0.0191 l -6.338114,10.27172 -0.03773,0.0367 c -0.0372,0.0369 -0.111074,0.11155 -0.625284,0.16795 -0.0584,0.007 -0.16555,0.0172 -0.234612,0.0212 -0.444007,0.002 -0.885967,0.0526 -1.319299,0.14934 -0.24537,0.04 -0.491892,0.0878 -0.727604,0.15555 -0.812629,0.23355 -1.485588,0.66454 -2.111497,1.18804 -0.625981,0.52353 -1.205693,1.14176 -1.598353,2.1425 -0.3927,1.00076 -0.59799,2.3852 -0.448551,3.4985 0.08,0.59526 0.264477,1.10832 0.501777,1.56269 0.9833,2.27833 3.223768,3.75422 5.703527,3.75739 3.43653,0 6.22236,-2.78777 6.22236,-6.22701 -0.0021,-0.4422 -0.05086,-0.88291 -0.146762,-1.31464 0.0591,-0.69262 0.219007,-1.51295 0.645957,-2.52078 0.832149,-1.96471 2.657776,-4.61484 3.697965,-6.04976 1.04019,-1.4349 1.283496,-1.63935 2.377117,-1.74201 1.09361,-0.10279 3.032418,-0.10358 4.119128,-0.0941 1.08675,0.009 1.312177,0.0286 1.377175,0.23409 0.065,0.20543 -0.02824,0.59794 -1.654162,3.16105 -1.626219,2.56312 -4.78687,7.2986 -6.936009,10.53424 -2.149161,3.23568 -3.290994,4.97842 -3.888653,6.10919 -0.597659,1.13067 -0.653494,1.65487 -0.251664,2.68407 0.401831,1.0292 1.259726,2.55838 1.784387,3.35535 0.524629,0.79698 0.710102,0.85341 0.906923,0.83458 0.196879,-0.0193 0.402188,-0.11213 3.168798,-4.21887 2.766618,-4.10682 8.085423,-12.21273 10.931631,-16.46669 2.846231,-4.25396 3.200966,-4.62772 3.640606,-4.88033 0.439629,-0.2526 0.963186,-0.38343 1.412316,-0.46767 0.449109,-0.0843 0.821029,-0.12224 1.335321,-0.16898 0.514278,-0.0467 1.169495,-0.10255 1.749245,-0.0744 0.579691,0.0281 1.081992,0.14079 1.475364,0.10336 0.393369,-0.0374 0.686311,-0.23344 1.371492,-1.07125 0.68517,-0.83776 1.808043,-2.32207 2.263944,-3.19412 0.42065,-0.80473 0.439864,-0.88799 -0.08372,-1.35599 -6.279499,-0.62831 -5.9958,-0.50776 -22.629108,-1.49707 -0.630341,-0.0374 -1.137815,-0.0589 -1.572514,-0.0718 v 0.002 c -0.217361,-0.005 -0.416626,-0.0104 -0.604097,-0.0104 z m -10.767819,14.25442 c 2.04394,5.3e-4 3.700669,1.6586 3.70055,3.70417 1.19e-4,2.04556 -1.65661,3.70463 -3.70055,3.7052 -2.04442,1.2e-4 -3.70222,-1.65912 -3.7021,-3.7052 -1.2e-4,-2.04603 1.65768,-3.70429 3.7021,-3.70417 z"
         style="fill:#008080;stroke:none;stroke-width:0.169868;stroke-linecap:butt;stroke-linejoin:miter;stroke-miterlimit:4;stroke-dasharray:none;stroke-opacity:1"
         id="path891" />
      <path
         inkscape:export-ydpi="300.10269"
         inkscape:export-xdpi="300.10269"
         inkscape:export-filename="C:\Users\aravi\Desktop\path968.png"
         d="m 63.491804,280.02868 c -0.114694,0.008 -0.254198,0.0476 -0.441833,0.10904 -3.69263,5.12169 -3.446735,4.93575 -12.644707,18.84071 -0.34857,0.52695 -0.620379,0.95608 -0.849558,1.32601 h -0.0021 c -0.229238,0.36992 -0.411533,0.68245 -0.566373,0.98702 -0.3097,0.60903 -0.511944,1.18508 -0.532783,1.72393 -0.0217,0.53883 0.13902,1.04382 0.220141,1.29656 0.0329,0.10244 0.05628,0.15736 0.08888,0.19999 -0.0021,0.0172 -0.0052,0.0353 -0.0072,0.0522 l 5.699911,10.63915 0.01394,0.0512 c 0.0155,0.0507 0.03976,0.15126 -0.168985,0.62476 -0.024,0.054 -0.06785,0.15129 -0.09715,0.21446 -0.220372,0.3858 -0.399315,0.79418 -0.532786,1.21802 -0.0886,0.23255 -0.171334,0.4699 -0.230992,0.70796 -0.205531,0.82077 -0.170104,1.61909 -0.03152,2.42363 0.138589,0.80455 0.380942,1.61735 1.049031,2.45928 0.66811,0.84192 1.762479,1.71403 2.799829,2.14302 0.554579,0.22947 1.09016,0.32634 1.60197,0.34881 2.462649,0.29136 4.863689,-0.90761 6.110221,-3.05304 1.723599,-2.97532 0.710586,-6.78659 -2.262394,-8.51162 -0.38354,-0.21983 -0.789083,-0.39751 -1.210262,-0.53124 -0.568891,-0.39879 -1.19861,-0.94858 -1.8557,-1.82366 -1.28097,-1.70593 -2.654819,-4.61649 -3.373438,-6.23683 -0.718672,-1.6203 -0.774509,-1.93379 -0.314711,-2.93212 0.459811,-0.99836 1.432218,-2.67752 1.985409,-3.61373 0.553159,-0.9362 0.682818,-1.12058 0.892969,-1.07384 0.210061,0.0467 0.503272,0.32382 1.903243,3.01739 1.399979,2.69361 3.90751,7.80455 5.626531,11.2882 1.719038,3.48369 2.652866,5.34757 3.330546,6.43216 0.677688,1.08464 1.102424,1.39543 2.193663,1.56373 1.091211,0.16816 2.844062,0.19238 3.796152,0.13798 0.952069,-0.0543 1.093705,-0.1871 1.176155,-0.3669 0.0826,-0.1798 0.104714,-0.40445 -2.057755,-4.85965 -2.1624,-4.45522 -6.501743,-13.12605 -8.751406,-17.72399 -2.24967,-4.59793 -2.394778,-5.09285 -2.392616,-5.60017 0.0021,-0.50734 0.151365,-1.02568 0.303855,-1.45676 0.152551,-0.43113 0.306499,-0.77253 0.524,-1.24127 0.21753,-0.4687 0.497771,-1.06298 0.812871,-1.55081 0.31505,-0.48783 0.665102,-0.86637 0.829924,-1.22576 0.164798,-0.35945 0.14202,-0.71257 -0.238228,-1.72599 -0.380511,-1.01344 -1.100034,-2.72945 -1.625224,-3.56154 -0.302411,-0.47918 -0.440762,-0.68202 -0.664044,-0.71366 h -0.0011 c -0.03328,-0.005 -0.06859,-0.005 -0.106455,-0.003 z m -4.022492,35.42161 c 0.596548,0.0172 1.198237,0.17799 1.750796,0.49868 1.768311,1.02587 2.371399,3.29228 1.346689,5.06222 -1.025329,1.77015 -3.290504,2.37304 -5.059124,1.34669 -1.768729,-1.02615 -2.371204,-3.29325 -1.345652,-5.06326 0.705138,-1.21645 1.994871,-1.88101 3.307291,-1.84433 z"
         style="fill:#ffffff;fill-opacity:1;stroke:none;stroke-width:0.169868;stroke-linecap:butt;stroke-linejoin:miter;stroke-miterlimit:4;stroke-dasharray:none;stroke-opacity:1"
         id="path893" />
      <path
         inkscape:export-ydpi="300.10269"
         inkscape:export-xdpi="300.10269"
         inkscape:export-filename="C:\Users\aravi\Desktop\path968.png"
         d="m 120.96892,269.7244 c -0.025,-5.3e-4 -0.0494,0.002 -0.0739,0.005 -0.19618,0.0254 -0.39867,0.12553 -3.03134,4.31963 -2.63267,4.19406 -7.68722,12.46767 -10.39472,16.81138 -2.70751,4.34373 -3.04966,4.72889 -3.48092,4.99556 -0.43126,0.26665 -0.94963,0.41389 -1.39578,0.51263 -0.44615,0.0988 -0.81763,0.14867 -1.33015,0.21187 -0.5125,0.0633 -1.1643,0.14057 -1.744597,0.13126 -0.580335,-0.009 -1.086522,-0.10568 -1.478463,-0.0553 -0.39194,0.05 -0.67909,0.25624 -1.33687,1.11569 -0.657821,0.85947 -1.732574,2.3786 -2.160075,3.26492 -0.394491,0.81789 -0.410689,0.90158 0.127641,1.35237 6.296484,0.42498 6.009264,0.31452 22.665804,0.76584 0.6312,0.0172 1.13913,0.0214 1.57406,0.0191 v 10e-4 c 0.4349,-10e-4 0.79676,-0.0124 1.13688,-0.0419 0.68026,-0.0593 1.27516,-0.19198 1.74305,-0.45941 0.46784,-0.26745 0.81093,-0.67092 0.98237,-0.87333 0.0696,-0.0823 0.10523,-0.13105 0.12402,-0.18138 0.0138,-0.007 0.0319,-0.0154 0.047,-0.0222 l 6.00325,-10.47068 0.0357,-0.0382 c 0.0357,-0.0381 0.10867,-0.11471 0.62064,-0.18759 0.0583,-0.009 0.16371,-0.0217 0.23254,-0.03 0.44374,-0.0172 0.88418,-0.0814 1.31413,-0.19223 0.24397,-0.0481 0.4885,-0.10343 0.72192,-0.1788 0.80467,-0.25976 1.4645,-0.71225 2.07326,-1.25574 0.60874,-0.54349 1.16788,-1.17918 1.52807,-2.19212 0.3602,-1.0129 0.52069,-2.40351 0.33538,-3.51141 -0.0991,-0.59233 -0.30007,-1.0997 -0.5519,-1.54616 -1.05631,-2.24537 -3.34375,-3.64884 -5.82238,-3.57187 -3.43471,0.11107 -6.1297,2.9875 -6.01876,6.42493 0.0172,0.44192 0.0808,0.8816 0.19017,1.31 -0.0369,0.69414 -0.16961,1.51983 -0.56379,2.54092 -0.76834,1.99058 -2.50874,4.69675 -3.50211,6.16449 -0.99334,1.46777 -1.22949,1.68109 -2.31924,1.81901 -1.08973,0.13798 -3.028,0.20118 -4.11448,0.22686 -1.08649,0.0257 -1.31227,0.0157 -1.38389,-0.18914 -0.0717,-0.20305 0.0102,-0.59943 1.55184,-3.21376 1.5427,-2.61432 4.54921,-7.44891 6.59288,-10.75231 2.04366,-3.30341 3.12884,-5.08268 3.6897,-6.23218 0.56087,-1.14949 0.59985,-1.67408 0.16485,-2.68976 -0.43482,-1.01569 -1.34231,-2.51686 -1.89239,-3.29644 -0.48134,-0.68217 -0.68468,-0.80672 -0.85938,-0.81028 z m 8.60929,11.44168 c 2.04335,-0.0662 3.75301,1.53878 3.81889,3.58376 0.0662,2.045 -1.53729,3.75604 -3.58066,3.82199 -2.0429,0.0654 -3.75201,-1.53925 -3.81786,-3.58376 -0.0662,-2.0445 1.53678,-3.7554 3.57963,-3.82199 z"
         style="fill:#ffffff;fill-opacity:1;stroke:none;stroke-width:0.169868;stroke-linecap:butt;stroke-linejoin:miter;stroke-miterlimit:4;stroke-dasharray:none;stroke-opacity:1"
         id="path895" />
      <path
         inkscape:export-ydpi="300.10269"
         inkscape:export-xdpi="300.10269"
         inkscape:export-filename="C:\Users\aravi\Desktop\path968.png"
         d="m 109.73239,237.54445 c -2.29879,-0.0164 -4.43728,1.24386 -5.53144,3.29593 -1.61404,3.0363 -0.46246,6.8064 2.57142,8.4217 0.39121,0.20569 0.80362,0.36903 1.22938,0.48731 0.58308,0.37776 1.23224,0.90497 1.92081,1.75545 1.3423,1.65799 2.82048,4.5162 3.59772,6.10919 0.77723,1.59299 0.84423,1.90318 0.42116,2.91765 -0.42311,1.01447 -1.33288,2.72824 -1.85157,3.68401 -0.51867,0.95578 -0.64148,1.14491 -0.85318,1.10588 -0.21175,-0.0391 -0.51502,-0.30542 -2.01228,-2.94608 -1.4972,-2.64066 -4.18881,-7.65723 -6.03374,-11.0758 -1.84489,-3.41859 -2.8463,-5.24591 -3.563088,-6.30505 -0.716772,-1.05914 -1.152337,-1.35425 -2.248958,-1.48259 -1.096629,-0.12849 -2.849253,-0.0892 -3.798734,0 -0.94942,0.0893 -1.08689,0.22661 -1.16272,0.40927 -0.0759,0.18287 -0.08939,0.40888 2.233973,4.78214 2.32342,4.37325 6.975887,12.87896 9.391677,17.3917 2.41584,4.51272 2.57883,5.00267 2.59519,5.50975 0.0172,0.50706 -0.11399,1.02968 -0.25063,1.46605 -0.1367,0.43638 -0.27882,0.7835 -0.47904,1.25988 -0.20025,0.47636 -0.45846,1.08072 -0.75551,1.57974 -0.29709,0.49902 -0.63231,0.89052 -0.78393,1.25574 -0.15154,0.36519 -0.11605,0.7168 0.30127,1.71566 0.41721,0.99883 1.19877,2.68763 1.7539,3.50004 0.5123,0.7496 0.57633,0.80612 1.23506,0.56328 3.50347,-5.25315 3.26529,-5.05923 11.95018,-19.29081 0.32912,-0.53931 0.58442,-0.97797 0.79995,-1.35599 h 0.002 c 0.2156,-0.37805 0.38652,-0.69774 0.5302,-1.00769 0.28729,-0.61995 0.46749,-1.20225 0.4687,-1.7415 10e-4,-0.53924 -0.17719,-1.03766 -0.26717,-1.28726 -0.0364,-0.10124 -0.0615,-0.15558 -0.0956,-0.19689 0.001,-0.0173 0.005,-0.0356 0.005,-0.0527 l -6.08542,-10.42365 -0.0171,-0.0501 c -0.0172,-0.0502 -0.0459,-0.15139 0.14573,-0.632 0.0215,-0.0547 0.0633,-0.1532 0.0904,-0.21704 0.20626,-0.39356 0.36939,-0.80869 0.48731,-1.23713 0.08,-0.23568 0.15361,-0.4751 0.20464,-0.71521 0.17555,-0.82769 0.11206,-1.62519 -0.0558,-2.42414 -0.16773,-0.79897 -0.44059,-1.60147 -1.13895,-2.41845 -0.69836,-0.81699 -1.82298,-1.64833 -2.87527,-2.03916 -0.5626,-0.20903 -1.10212,-0.28717 -1.61438,-0.29093 -0.15376,-0.012 -0.30676,-0.0189 -0.4594,-0.0202 z m 0.15917,2.57142 c 0.59688,-0.005 1.20332,0.13429 1.76733,0.4346 1.80493,0.96086 2.48996,3.20375 1.52962,5.01003 -0.96049,1.80564 -3.20201,2.49101 -5.00641,1.53014 -1.80456,-0.96064 -2.48914,-3.20385 -1.52962,-5.01003 0.66006,-1.2419 1.92593,-1.95331 3.23908,-1.96474 z"
         style="fill:#008080;stroke:none;stroke-width:0.169868;stroke-linecap:butt;stroke-linejoin:miter;stroke-miterlimit:4;stroke-dasharray:none;stroke-opacity:1"
         id="path897" />
      <path
         inkscape:export-ydpi="300.10269"
         inkscape:export-xdpi="300.10269"
         inkscape:export-filename="C:\Users\aravi\Desktop\path968.png"
         d="m 64.063347,235.45724 c -0.26506,0.006 -0.543613,0.0348 -0.840259,0.0925 -1.054722,0.20424 -2.33331,0.77282 -3.192571,1.49552 -0.45943,0.38638 -0.793784,0.81745 -1.050065,1.26142 -1.395521,2.05148 -1.441079,4.73635 -0.115239,6.83369 1.840931,2.90411 5.686298,3.76416 8.588108,1.92185 0.371858,-0.23882 0.717388,-0.51626 1.030427,-0.82838 0.61617,-0.32082 1.393727,-0.62544 2.472717,-0.8046 2.103501,-0.34927 5.317963,-0.22572 7.085872,-0.11524 1.767919,0.11038 2.070526,0.20717 2.742986,1.07642 0.672449,0.86922 1.711936,2.50636 2.286164,3.42977 0.574251,0.92339 0.677984,1.12437 0.539504,1.28933 -0.13843,0.16488 -0.519502,0.2968 -3.553273,0.29558 -3.03376,-0.001 -8.721518,-0.13609 -12.602847,-0.2191 -3.88139,-0.0828 -5.964089,-0.1145 -7.238317,-0.0139 -1.274231,0.10056 -1.746219,0.33484 -2.399337,1.22577 -0.653132,0.89091 -1.483958,2.4349 -1.875338,3.30522 -0.3914,0.8703 -0.339465,1.05818 -0.218075,1.2144 0.121359,0.15626 0.309904,0.27907 5.257044,0.41703 4.947179,0.13798 14.635707,0.29061 19.749698,0.41703 5.113941,0.12642 5.619713,0.22687 6.068364,0.46302 0.44862,0.23616 0.838655,0.60714 1.150316,0.94154 0.311682,0.33441 0.543396,0.62966 0.858345,1.03922 0.314992,0.40955 0.7131,0.93267 0.99994,1.43763 0.286829,0.50497 0.460896,0.99045 0.703315,1.30277 0.242422,0.31229 0.564788,0.45526 1.63866,0.58549 1.07387,0.13039 2.927781,0.28343 3.907772,0.20154 0.904322,-0.0755 0.985316,-0.10458 1.099674,-0.79788 -2.833928,-5.64324 -2.782964,-5.33899 -10.858767,-19.9254 -0.306041,-0.55275 -0.56088,-0.99207 -0.782899,-1.36633 v 0.002 c -0.222078,-0.37428 -0.41501,-0.68153 -0.6134,-0.95963 -0.396748,-0.55616 -0.814162,-1.00078 -1.282091,-1.26814 -0.46794,-0.26737 -0.98924,-0.35867 -1.250569,-0.4036 -0.106011,-0.0191 -0.165455,-0.0243 -0.218075,-0.0139 -0.01551,-0.0104 -0.02787,-0.0212 -0.04238,-0.03 l -12.062311,0.14676 -0.05116,-0.0119 c -0.051,-0.0121 -0.153964,-0.0357 -0.476973,-0.43977 -0.0367,-0.0459 -0.101261,-0.13103 -0.14366,-0.18603 -0.24016,-0.37376 -0.519552,-0.72034 -0.833541,-1.03456 -0.165322,-0.18601 -0.337936,-0.36836 -0.521417,-0.53124 -0.632439,-0.5616 -1.355635,-0.90025 -2.132685,-1.14877 -0.485661,-0.15539 -0.993206,-0.27592 -1.562695,-0.29455 v -5.3e-4 c -0.08542,-0.003 -0.172614,-0.004 -0.260966,-0.002 z m 0.319876,2.47737 c 1.18782,0.0343 2.338115,0.63885 3.022555,1.71876 1.094491,1.7276 0.58231,4.01663 -1.143598,5.11235 -1.725851,1.09591 -4.013343,0.58445 -5.108734,-1.14257 -1.095349,-1.72763 -0.582364,-4.01742 1.144116,-5.11338 0.647341,-0.41106 1.37296,-0.59572 2.085661,-0.57516 z"
         style="fill:#ffffff;fill-opacity:1;stroke:none;stroke-width:0.169868;stroke-linecap:butt;stroke-linejoin:miter;stroke-miterlimit:4;stroke-dasharray:none;stroke-opacity:1"
         id="path899" />
      <g
         style="stroke-width:0.443455"
         id="g911"
         transform="matrix(2.239677,0.25508567,-0.25528824,2.2414556,596.19598,-47.864278)"
         inkscape:export-filename="C:\Users\aravi\Desktop\path968.png"
         inkscape:export-xdpi="300.10269"
         inkscape:export-ydpi="300.10269">
        <path
           inkscape:export-ydpi="300.10269"
           inkscape:export-xdpi="300.10269"
           inkscape:export-filename="C:\Users\aravi\Desktop\path968.png"
           style="fill:#008080;fill-opacity:0.941176;stroke-width:0.0131688"
           d="m -215.58962,176.45181 c -0.27274,-0.5694 -0.24023,-1.42464 0.0899,-2.36927 0.14617,-0.41835 0.33898,-0.83608 0.67896,-1.47115 0.16686,-0.31201 0.30641,-0.60001 0.30996,-0.64021 0.006,-0.0704 -0.008,-0.0841 -0.36516,-0.34903 -0.20417,-0.15178 -0.50316,-0.39714 -0.66388,-0.54544 -0.40541,-0.37365 -1.04579,-1.08044 -1.22934,-1.35662 -0.25358,-0.38213 -0.4289,-0.89439 -0.43608,-1.27545 -0.0104,-0.54413 0.16432,-0.89982 0.65476,-1.33331 l 0.26828,-0.23832 0.0248,0.13279 c 0.0137,0.0732 0.0473,0.18323 0.0745,0.24475 0.089,0.20156 0.0874,0.19247 0.0348,0.18852 -0.11634,-0.009 -0.41482,0.34243 -0.4991,0.58858 -0.10585,0.30826 -0.0466,0.77638 0.14842,1.1715 0.20301,0.41146 0.86621,1.17253 1.43281,1.64264 0.30825,0.25653 0.8412,0.64283 0.89222,0.64679 0.0188,10e-4 0.13251,-0.12435 0.25117,-0.28176 0.33308,-0.43509 0.55981,-0.72017 0.87107,-1.09508 0.4768,-0.57411 0.44068,-0.47339 0.39619,-1.10464 -0.0214,-0.30226 -0.0487,-0.8708 -0.0609,-1.26337 -0.0122,-0.39258 -0.0307,-0.74388 -0.0412,-0.78067 -0.0239,-0.0835 -0.19696,-0.12113 -0.58824,-0.12778 l -0.2665,-0.004 -0.0131,-0.18877 c -0.007,-0.10394 -0.0203,-0.21871 -0.0291,-0.25552 -0.015,-0.0625 0.006,-0.0656 0.33887,-0.0488 0.19503,0.01 0.41498,0.0163 0.48846,0.0144 l 0.13378,-0.003 0.0485,-0.39078 c 0.2203,-1.77272 0.66391,-2.83195 1.45351,-3.47058 0.25551,-0.20561 0.25847,-0.20815 0.55584,-0.28096 0.44193,-0.10841 0.70973,-0.0758 1.14145,0.13924 0.79106,0.39399 1.29084,0.92125 2.1371,2.25481 0.18161,0.2862 0.33585,0.52043 0.34276,0.52049 0.008,6.4e-4 0.30172,-0.11771 0.65532,-0.26171 0.35352,-0.14408 0.80491,-0.31338 1.00294,-0.37641 1.14851,-0.36554 2.15426,-0.3503 2.70131,0.0409 0.13096,0.0937 0.22003,0.18374 0.36579,0.37019 0.21609,0.27724 0.28704,0.43812 0.3412,0.78206 l 0.0333,0.21044 -0.087,-0.0293 c -0.0474,-0.0168 -0.15972,-0.0346 -0.24862,-0.041 l -0.16186,-0.0116 -0.0857,-0.25825 c -0.0736,-0.222 -0.10727,-0.28343 -0.24048,-0.43949 -0.1414,-0.16524 -0.17436,-0.19073 -0.38294,-0.27847 -0.28312,-0.12052 -0.63359,-0.15225 -1.08205,-0.0982 -0.6,0.0724 -1.5378,0.36763 -2.19538,0.69117 -0.28469,0.14011 -0.32074,0.16461 -0.33988,0.23049 -0.0154,0.0534 0.0322,0.2088 0.1705,0.55817 0.10556,0.26642 0.30498,0.80481 0.44309,1.1966 0.13816,0.39182 0.26205,0.72481 0.2752,0.74012 0.0125,0.0146 0.33464,0.18936 0.71421,0.38691 0.37964,0.19743 0.81089,0.42893 0.95835,0.51441 0.35407,0.20518 0.41814,0.23291 0.4803,0.20641 0.0638,-0.0259 0.0694,-0.0342 0.35869,-0.52975 0.21719,-0.37023 0.22788,-0.39717 0.18242,-0.4531 -0.0448,-0.0537 -0.0394,-0.055 0.0483,-0.005 0.17474,0.0972 0.35199,0.15926 0.51534,0.18028 0.0884,0.0113 0.14677,0.0249 0.12993,0.03 -0.018,0.005 -0.0683,0.0184 -0.11404,0.0301 -0.0763,0.019 -0.10822,0.0641 -0.369,0.5303 -0.15695,0.28031 -0.27887,0.528 -0.27093,0.5504 0.008,0.0218 0.21963,0.20522 0.47002,0.40622 0.59654,0.47861 0.68447,0.55618 1.07624,0.95056 0.36568,0.36807 0.66077,0.73944 0.82819,1.04088 0.33808,0.60958 0.41392,1.29925 0.19842,1.80483 -0.10144,0.2381 -0.44474,0.60477 -0.74655,0.79743 -0.6426,0.41047 -1.64336,0.60747 -3.09156,0.60896 -0.2753,3.1e-4 -0.51105,0.009 -0.52356,0.0199 -0.0126,0.0108 -0.0512,0.22845 -0.0859,0.48374 -0.1456,1.07016 -0.37623,1.86455 -0.7259,2.50021 -0.30021,0.5456 -0.7002,0.96099 -1.01894,1.05786 -0.50515,0.1533 -0.93822,0.14943 -1.32625,-0.0121 l -0.21737,-0.0902 0.0811,-0.0696 c 0.0446,-0.0383 0.12095,-0.1255 0.16839,-0.19511 l 0.0873,-0.12547 0.0805,0.0384 c 0.044,0.0214 0.21434,0.0531 0.37772,0.0712 0.32514,0.036 0.48245,-5.9e-4 0.73787,-0.17108 0.3948,-0.26368 0.77707,-0.94143 1.00881,-1.78863 0.15556,-0.56904 0.2939,-1.37883 0.27909,-1.6338 l -0.007,-0.12337 -0.13495,-0.0288 c -0.074,-0.0159 -0.33842,-0.0621 -0.58725,-0.10305 -0.44952,-0.0737 -1.46317,-0.263 -1.65404,-0.30887 -0.12017,-0.0288 -0.16554,-0.005 -0.80686,0.43591 -0.25772,0.17692 -0.66469,0.44696 -0.90448,0.59994 -0.61638,0.39324 -0.58756,0.34566 -0.4176,0.6901 0.15598,0.31591 0.24669,0.4411 0.32665,0.45017 0.0438,0.005 0.0422,0.0107 -0.006,0.0269 -0.0313,0.013 -0.14632,0.0874 -0.25371,0.16807 -0.18445,0.1368 -0.19659,0.14353 -0.22377,0.0902 -0.12785,-0.25124 -0.44747,-0.77325 -0.47397,-0.77438 -0.0188,-10e-4 -0.26213,0.0983 -0.54192,0.2203 -1.58619,0.69094 -2.72559,0.86544 -3.54087,0.54232 -0.35218,-0.13946 -0.66152,-0.41485 -0.8064,-0.71731 z m 0.76264,0.1312 c 0.54302,0.37232 1.5038,0.31756 2.77946,-0.15831 0.47852,-0.17848 0.99392,-0.40788 1.07709,-0.47931 0.0444,-0.0381 0.0317,-0.0872 -0.11704,-0.44905 -0.0916,-0.22349 -0.30346,-0.7848 -0.47042,-1.24744 -0.16685,-0.46273 -0.31674,-0.85649 -0.33282,-0.87522 -0.0161,-0.0187 -0.20071,-0.11934 -0.4099,-0.22372 -0.20925,-0.10443 -0.67893,-0.35001 -1.04352,-0.54596 -0.39075,-0.20996 -0.67807,-0.3478 -0.69984,-0.33563 -0.0207,0.01 -0.15109,0.22335 -0.29035,0.47106 -0.61513,1.09357 -0.9143,1.92903 -0.94929,2.65119 -0.0147,0.30037 0.0292,0.62746 0.10791,0.80551 0.0516,0.11677 0.20847,0.29078 0.34932,0.38631 z m 4.47148,-0.99118 c 0.20893,-0.0678 1.53259,-0.94811 1.56698,-1.04217 0.0171,-0.0436 -0.0364,-0.068 -0.37624,-0.17473 -0.21723,-0.0676 -0.73141,-0.24213 -1.1425,-0.38755 -0.84644,-0.29937 -0.88538,-0.31067 -0.88823,-0.25709 -0.006,0.11279 0.60685,1.74266 0.69332,1.84379 0.0319,0.0373 0.0722,0.0416 0.14662,0.0178 z m -2.83104,-3.47027 c 0.57019,0.32384 1.01363,0.54815 1.0525,0.53227 0.0399,-0.0167 0.0169,-0.20234 -0.10285,-0.82723 -0.14878,-0.77615 -0.30761,-1.47282 -0.33626,-1.47499 -0.049,-0.004 -0.16654,0.13249 -0.62908,0.72399 -0.24923,0.31898 -0.45967,0.5861 -0.46795,0.59321 -0.009,0.008 -0.0164,0.043 -0.0197,0.0779 -0.006,0.0806 0.0201,0.0999 0.5034,0.37475 z m 2.29797,1.11171 c 0.87781,0.3403 1.35379,0.50299 2.49284,0.85204 l 0.18572,0.0567 0.30311,-0.23502 c 0.48306,-0.3756 2.06647,-1.85178 2.22867,-2.07773 0.042,-0.0577 0.042,-0.1364 0.002,-0.39355 -0.0684,-0.43673 -0.2811,-1.51666 -0.43805,-2.22491 -0.10782,-0.48646 -0.14151,-0.59376 -0.20313,-0.64689 -0.24834,-0.21441 -2.71761,-1.08774 -3.16789,-1.12028 l -0.11989,-0.009 -0.66444,0.59596 c -0.85981,0.77101 -1.65021,1.5151 -1.72994,1.62915 -0.0788,0.11287 -0.0694,0.3001 0.0483,0.98146 0.14219,0.82204 0.46706,2.30711 0.51737,2.3652 0.0107,0.0124 0.25681,0.11485 0.54598,0.22707 z m -1.11206,-4.30989 c 0.14841,-0.12847 1.12561,-1.03211 1.49369,-1.38172 0.19816,-0.18772 0.27466,-0.27518 0.25837,-0.29414 -0.0556,-0.0648 -1.89532,-0.36028 -1.95011,-0.31326 -0.0599,0.0515 -0.008,1.98484 0.0553,2.05871 0.0192,0.0224 0.0583,0.003 0.14259,-0.0696 z m 4.93984,5.47683 c 0.36299,0.0673 1.32697,0.20881 1.43539,0.21086 l 0.0848,0.002 0.0184,-0.20613 c 0.0409,-0.45453 0.005,-1.78463 -0.0501,-1.84854 -0.0216,-0.0251 -0.0978,0.0307 -0.40924,0.29809 -0.4071,0.34952 -1.4819,1.34287 -1.5181,1.40309 -0.0268,0.0446 0.0487,0.069 0.4386,0.14124 z m -4.79152,-7.95244 c 0.82143,0.13412 1.2324,0.20798 1.69643,0.30501 0.28233,0.059 0.52699,0.0957 0.54355,0.0815 0.0755,-0.0648 1.21348,-0.83859 1.60221,-1.0894 0.23797,-0.1535 0.44792,-0.30126 0.46665,-0.32815 0.038,-0.0543 -0.0197,-0.1763 -0.34368,-0.72998 -0.16182,-0.27651 -0.24626,-0.3865 -0.70873,-0.92358 -0.59386,-0.68993 -0.72481,-0.80557 -1.10681,-0.97469 -0.27387,-0.12152 -0.4822,-0.16045 -0.69642,-0.12957 -0.84276,0.12119 -1.43328,1.19328 -1.73209,3.14504 -0.0585,0.38174 -0.0639,0.52459 -0.0219,0.57348 0.0126,0.0146 0.14698,0.0456 0.30074,0.0706 z m 7.96279,8.24812 c 0.43893,-0.0153 0.83251,-0.0671 1.26592,-0.16677 1.30032,-0.29895 1.79525,-0.8673 1.55295,-1.78327 -0.11227,-0.42433 -0.23866,-0.63412 -0.72007,-1.19422 -0.34995,-0.40712 -0.44775,-0.50322 -0.76667,-0.76849 -0.45215,-0.3739 -0.90365,-0.71256 -0.96337,-0.72329 -0.0501,-0.009 -0.0452,-0.0142 -0.44244,0.4869 -0.15266,0.19254 -0.44697,0.55727 -0.65403,0.81013 -0.20702,0.25293 -0.39835,0.48803 -0.42515,0.52253 -0.0363,0.045 -0.0419,0.18254 -0.023,0.51068 0.014,0.24643 0.0368,0.78876 0.0504,1.2052 0.0136,0.41639 0.0302,0.82728 0.0372,0.91294 l 0.0125,0.15562 0.37893,0.0215 c 0.20863,0.0119 0.52209,0.0166 0.69682,0.0105 z m -4.13128,-7.34886 c 0.47287,0.16154 0.99703,0.34067 1.16502,0.3979 0.16793,0.0573 0.31406,0.0938 0.3245,0.0813 0.0358,-0.0413 -0.54113,-1.63074 -0.67691,-1.86554 -0.0528,-0.0913 -0.0542,-0.0929 -0.15115,-0.034 -0.46492,0.28013 -1.47686,0.93515 -1.57384,1.01844 -0.0352,0.0302 -0.0347,0.0474 0.004,0.0739 0.0269,0.0191 0.43613,0.16651 0.90895,0.32808 z m 2.94039,3.80966 c 0.15164,-0.13024 1.04146,-1.31651 1.04861,-1.39792 0.006,-0.0653 -1.57007,-0.94545 -1.60075,-0.89418 -0.0249,0.043 0.40621,2.29141 0.45098,2.35006 0.006,0.008 0.0528,-0.0165 0.10103,-0.0579 z"
           id="path901" />
        <ellipse
           inkscape:export-ydpi="300.10269"
           inkscape:export-xdpi="300.10269"
           inkscape:export-filename="C:\Users\aravi\Desktop\path968.png"
           ry="1.3310422"
           rx="1.3131559"
           style="fill:#ffffff;fill-opacity:1;stroke:none;stroke-width:0.328406;stroke-opacity:1"
           id="ellipse903"
           cx="-13.556026"
           cy="271.70264"
           transform="rotate(49.342218)" />
        <ellipse
           inkscape:export-ydpi="300.10269"
           inkscape:export-xdpi="300.10269"
           inkscape:export-filename="C:\Users\aravi\Desktop\path968.png"
           ry="1.3310422"
           rx="1.3131559"
           cy="274.78323"
           cx="-1.1718407"
           id="ellipse905"
           style="fill:#ffffff;fill-opacity:1;stroke:none;stroke-width:0.328406;stroke-opacity:1"
           transform="rotate(49.342218)" />
        <ellipse
           inkscape:export-ydpi="300.10269"
           inkscape:export-xdpi="300.10269"
           inkscape:export-filename="C:\Users\aravi\Desktop\path968.png"
           ry="1.3310422"
           rx="1.3131559"
           style="fill:#ffffff;fill-opacity:1;stroke:none;stroke-width:0.328406;stroke-opacity:1"
           id="ellipse907"
           cx="-5.0797234"
           cy="262.43558"
           transform="rotate(49.342218)" />
        <path
           inkscape:export-ydpi="300.10269"
           inkscape:export-xdpi="300.10269"
           inkscape:export-filename="C:\Users\aravi\Desktop\path968.png"
           style="fill:#ffffff;fill-opacity:1;stroke:none;stroke-width:0.886898;stroke-miterlimit:4;stroke-dasharray:none;stroke-opacity:1"
           d="m -210.76777,171.97292 c -0.31752,-0.52227 -0.41196,-1.13233 -0.26462,-1.71081 0.12105,-0.4752 0.31465,-0.79492 0.68684,-1.13423 0.65353,-0.59727 1.54785,-0.7582 2.35823,-0.42686 0.36603,0.14966 0.56738,0.30015 0.84406,0.63083 0.40141,0.47965 0.53778,0.89801 0.50194,1.53811 -0.0355,0.63341 -0.2617,1.11877 -0.71423,1.53216 -0.28421,0.25793 -0.51757,0.38784 -0.92162,0.50773 -0.62494,0.18544 -1.27231,0.0932 -1.81919,-0.2593 -0.24126,-0.15582 -0.53261,-0.44957 -0.67136,-0.67779 z m 1.03934,0.2919 c 0.10579,0.0615 0.31626,0.14233 0.46754,0.18008 0.30231,0.0754 0.58799,0.0557 0.96804,-0.0664 0.85742,-0.27543 1.34865,-1.22302 1.08582,-2.09408 -0.28434,-0.94235 -1.17732,-1.42237 -2.1375,-1.14943 -0.28857,0.082 -0.31704,0.0972 -0.56072,0.30137 -0.31072,0.25896 -0.44967,0.44407 -0.57009,0.75282 -0.1716,0.44057 -0.12722,1.03401 0.10854,1.45104 0.12754,0.22554 0.38514,0.47821 0.63856,0.6247 z"
           id="path909" />
      </g>
    </g>
  </g>
</svg>
