<?xml version="1.0" encoding="UTF-8" standalone="no"?>
<svg
   xmlns:dc="http://purl.org/dc/elements/1.1/"
   xmlns:cc="http://creativecommons.org/ns#"
   xmlns:rdf="http://www.w3.org/1999/02/22-rdf-syntax-ns#"
   xmlns:svg="http://www.w3.org/2000/svg"
   xmlns="http://www.w3.org/2000/svg"
   xmlns:sodipodi="http://sodipodi.sourceforge.net/DTD/sodipodi-0.dtd"
   xmlns:inkscape="http://www.inkscape.org/namespaces/inkscape"
   sodipodi:docname="pie chart.svg"
   inkscape:version="1.0 (4035a4fb49, 2020-05-01)"
   id="svg2105"
   version="1.1"
   viewBox="0 0 57.246652 113.49812"
   height="113.49812mm"
   width="57.246651mm">
  <defs
     id="defs2099" />
  <sodipodi:namedview
     fit-margin-bottom="0"
     fit-margin-right="0"
     fit-margin-left="0"
     fit-margin-top="0"
     showgrid="false"
     inkscape:document-rotation="0"
     inkscape:current-layer="layer1"
     inkscape:document-units="mm"
     inkscape:cy="560"
     inkscape:cx="400"
     inkscape:zoom="0.35"
     inkscape:pageshadow="2"
     inkscape:pageopacity="0.0"
     borderopacity="1.0"
     bordercolor="#666666"
     pagecolor="#ffffff"
     id="base" />
  <metadata
     id="metadata2102">
    <rdf:RDF>
      <cc:Work
         rdf:about="">
        <dc:format>image/svg+xml</dc:format>
        <dc:type
           rdf:resource="http://purl.org/dc/dcmitype/StillImage" />
        <dc:title></dc:title>
      </cc:Work>
    </rdf:RDF>
  </metadata>
  <g
     transform="translate(-67.915277,-72.563176)"
     id="layer1"
     inkscape:groupmode="layer"
     inkscape:label="Layer 1">
    <g
       transform="matrix(-0.0299613,0.26288145,-0.26288145,-0.0299613,226.61577,-41.644705)"
       id="g172">
      <path
         id="path164"
         d="m 586,439.5 v 92.3 c 25.5,0 48.7,-10.1 65.7,-26.6 z"
         fill="#23527e" />
      <g
         id="g168">
        <path
           id="path166"
           d="m 671.4,415.3 c 0,-52.2 -42.3,-94.5 -94.5,-94.5 -52.2,0 -94.5,42.3 -94.5,94.5 0,52.2 42.3,94.5 94.5,94.5 v -92.3 l 65.7,65.7 c -0.5,0.5 -1.1,1 -1.6,1.5 18.7,-17.3 30.4,-42 30.4,-69.4 z"
           fill="#3ec4c3" />
      </g>
      <path
         id="path170"
         d="m 482.4,415.3 c 0,52.2 42.3,94.5 94.5,94.5 v -92.3 l -82.6,-48.2 c -7.5,13.6 -11.9,29.3 -11.9,46 z"
         fill="#e58033" />
    </g>
    <g
       transform="matrix(-0.0299613,0.26288145,-0.26288145,-0.0299613,226.61577,-41.644705)"
       id="g182">
      <path
         id="path174"
         d="m 707.3,413.5 c 0,18.9 5.5,36.4 15.1,51.2 L 801.8,413.5 735,346.7 c -17.2,17.1 -27.7,40.7 -27.7,66.8 z"
         fill="#23527e" />
      <g
         id="g178">
        <path
           id="path176"
           d="m 818.4,320.8 c -26.1,0 -49.7,10.6 -66.8,27.7 l 66.8,66.8 -79.4,51.2 c -0.6,-0.9 -1.1,-1.8 -1.7,-2.7 16.5,27.6 46.7,46 81.1,46 52.2,0 94.5,-42.3 94.5,-94.5 0,-52.2 -42.3,-94.5 -94.5,-94.5 z"
           fill="#e58033" />
      </g>
      <path
         id="path180"
         d="m 739,466.4 c 16.8,26 46.1,43.3 79.4,43.3 52.2,0 94.5,-42.3 94.5,-94.5 0,-6.7 -0.7,-13.1 -2,-19.4 l -92.5,19.4 z"
         fill="#3ec4c3" />
    </g>
  </g>
</svg>
