<?xml version="1.0" encoding="UTF-8" standalone="no"?>
<svg
   xmlns:dc="http://purl.org/dc/elements/1.1/"
   xmlns:cc="http://creativecommons.org/ns#"
   xmlns:rdf="http://www.w3.org/1999/02/22-rdf-syntax-ns#"
   xmlns:svg="http://www.w3.org/2000/svg"
   xmlns="http://www.w3.org/2000/svg"
   xmlns:sodipodi="http://sodipodi.sourceforge.net/DTD/sodipodi-0.dtd"
   xmlns:inkscape="http://www.inkscape.org/namespaces/inkscape"
   width="68.329918mm"
   height="104.76238mm"
   viewBox="0 0 68.329919 104.76238"
   version="1.1"
   id="svg1767"
   inkscape:version="1.0 (4035a4fb49, 2020-05-01)"
   sodipodi:docname="book unlock -ve icon.svg">
  <defs
     id="defs1761" />
  <sodipodi:namedview
     id="base"
     pagecolor="#ffffff"
     bordercolor="#666666"
     borderopacity="1.0"
     inkscape:pageopacity="0.0"
     inkscape:pageshadow="2"
     inkscape:zoom="0.35"
     inkscape:cx="400"
     inkscape:cy="560"
     inkscape:document-units="mm"
     inkscape:current-layer="layer1"
     inkscape:document-rotation="0"
     showgrid="false"
     fit-margin-top="0"
     fit-margin-left="0"
     fit-margin-right="0"
     fit-margin-bottom="0"
     scale-x="1"
     showborder="true" />
  <metadata
     id="metadata1764">
    <rdf:RDF>
      <cc:Work
         rdf:about="">
        <dc:format>image/svg+xml</dc:format>
        <dc:type
           rdf:resource="http://purl.org/dc/dcmitype/StillImage" />
        <dc:title></dc:title>
      </cc:Work>
    </rdf:RDF>
  </metadata>
  <g
     inkscape:label="Layer 1"
     inkscape:groupmode="layer"
     id="layer1"
     transform="translate(188.31488,-86.565308)">
    <rect
       inkscape:export-ydpi="300.10269"
       inkscape:export-xdpi="300.10269"
       inkscape:export-filename="C:\Users\aravi\Desktop\path968.png"
       y="86.298035"
       x="-188.31488"
       height="104.76238"
       width="68.329918"
       id="rect913"
       style="fill:#33364d;fill-opacity:1;stroke-width:2.64583;stop-color:#000000" />
    <path
       id="path939"
       style="fill:#ffffff;fill-opacity:1;stroke-width:0.999999"
       d="m -146.90024,112.92222 c -2.58021,0.001 -5.40535,0.005 -8.35668,0.01 l -21.46421,0.0396 -0.79234,0.39911 c -1.04733,0.52767 -1.9211,1.44797 -2.47948,2.61167 l -0.45508,0.94841 v 28.39765 c 0,26.84116 0.0132,28.43192 0.24426,29.02549 0.52815,1.357 1.92644,2.75103 3.27559,3.26581 0.28001,0.10683 1.44064,0.22036 2.76067,0.2697 l 2.27756,0.0852 0.069,2.09441 c 0.0544,1.65199 0.11281,2.12265 0.27606,2.2283 0.47326,0.30607 1.0288,0.137 2.15327,-0.6547 l 1.12611,-0.79274 1.15415,0.79274 c 1.22556,0.84182 1.76412,0.97758 2.21554,0.55843 0.22216,-0.20628 0.25261,-0.47753 0.25261,-2.26423 v -2.02997 l 17.74835,-0.037 c 17.388,-0.0363 17.75241,-0.0424 17.94434,-0.31175 0.29467,-0.41346 0.29495,-61.63185 2.3e-4,-62.04593 -0.17389,-0.24436 -0.40398,-0.27992 -2.0705,-0.32114 l -1.87478,-0.0464 v -0.6904 c 0,-0.84092 -0.22683,-1.39452 -0.61036,-1.49004 -0.11835,-0.0294 -5.65373,-0.0449 -13.39436,-0.0418 z m -17.28761,1.84547 c 2.57856,-0.001 5.61387,0.001 9.13797,0.008 l 20.15289,0.037 0.0348,26.58672 0.0348,26.58648 -20.80881,0.0377 -20.80881,0.0378 -0.96623,0.48932 c -0.53144,0.26912 -1.01364,0.51346 -1.07137,0.54324 -0.0577,0.0298 -0.0887,-11.62973 -0.069,-25.9099 l 0.0361,-25.96389 0.34508,-0.63092 c 0.46127,-0.84304 1.33615,-1.50581 2.24007,-1.69693 0.38169,-0.0807 4.00689,-0.12052 11.74255,-0.12441 z m 31.29234,2.36991 1.13877,0.0413 1.13878,0.0413 v 29.31513 l -2.3e-4,29.31483 -16.94764,0.0363 c -14.26514,0.0302 -16.95923,0.005 -17.02044,-0.15845 -0.04,-0.10696 -0.0537,-0.53764 -0.0305,-0.95675 l 0.0423,-0.76203 4.54351,-0.0374 c 3.27303,-0.0269 4.59874,-0.0847 4.74194,-0.20663 0.44428,-0.37831 0.47596,-1.06072 0.0709,-1.52602 -0.0339,-0.0389 -2.15301,-0.10269 -4.70903,-0.14161 l -4.6473,-0.0709 -0.0404,-1.02674 -0.0405,-1.02675 h 15.58242 15.58241 l 0.26286,-0.29871 c 0.32635,-0.37061 0.30049,1.95737 0.31812,-28.42032 z m -37.13099,52.8269 1.75993,0.0394 1.75992,0.0399 0.0365,4.6643 c 0.02,2.56541 -0.0114,4.71323 -0.0695,4.773 -0.0582,0.0597 -0.37899,-0.0796 -0.71282,-0.30951 -0.33383,-0.23003 -0.78826,-0.41822 -1.0099,-0.41822 -0.22164,0 -0.67029,0.18871 -0.99697,0.41932 -0.32668,0.23061 -0.63284,0.37914 -0.68047,0.33026 -0.0476,-0.049 -0.0865,-2.21499 -0.0865,-4.81365 z m -3.85523,0.01 c 1.59894,0 1.90618,0.0345 1.97694,0.22378 0.10838,0.28955 0.10838,1.38692 0,1.67647 -0.0729,0.19505 -0.48353,0.22403 -3.17476,0.22403 -3.51631,0 -3.48876,0.0113 -2.53071,-1.05493 0.80296,-0.89375 1.41549,-1.06935 3.72853,-1.06935 z m -2.22202,3.98552 c 0.32984,0.001 0.70913,0.006 1.14255,0.0127 l 3.07125,0.0382 v 0.92053 0.92026 l -2.00149,0.0262 c -2.34863,0.0306 -2.91054,-0.11663 -3.64979,-0.9562 -0.76742,-0.8715 -0.87139,-0.97739 1.43748,-0.96148 z" />
    <path
       sodipodi:nodetypes="sssssscccccccssssssssssss"
       id="path941"
       style="fill:#ffffff;fill-opacity:1;stroke:#ffffff;stroke-width:3;stroke-miterlimit:4;stroke-dasharray:none;stroke-opacity:1"
       d="m -155.70645,145.9934 c -0.79588,0 -1.59178,0.35556 -2.24626,1.06659 -0.34486,0.37464 -0.46889,0.55931 -0.64102,0.95471 -0.24952,0.57313 -0.32834,0.94016 -0.32834,1.52845 0,0.58306 0.0788,0.9559 0.3171,1.4996 0.32563,0.74282 0.81767,1.27185 1.53772,1.65347 l 0.3065,0.16244 -0.23478,2.33637 -0.36895,2.33637 h 1.65803 l 1.89283,0.0898 -0.46957,-2.42618 -0.36895,-2.33637 0.30652,-0.16244 c 0.72004,-0.38162 1.21197,-0.91066 1.5376,-1.65347 0.23832,-0.54371 0.31722,-0.91654 0.31722,-1.49961 0,-0.97307 -0.30979,-1.7666 -0.96936,-2.48315 -0.65451,-0.71103 -1.4504,-1.06659 -2.24629,-1.06659 z m 0.0149,2.3214 c 0.16742,0.003 0.33691,0.0476 0.49596,0.1344 0.36862,0.20098 0.5568,0.5078 0.58646,0.9564 0.0411,0.62116 -0.26811,1.14499 -0.77354,1.31068 -0.38223,0.12529 -0.70567,0.0495 -1.04205,-0.24412 -0.41826,-0.36513 -0.51878,-1.15341 -0.20932,-1.64198 0.21573,-0.34062 0.57415,-0.52411 0.94249,-0.51538 z" />
    <path
       sodipodi:nodetypes="ccsccccccccscccsccc"
       id="path943"
       style="fill:#ffffff;fill-opacity:1;stroke:none;stroke-width:0.2;stroke-miterlimit:4;stroke-dasharray:none;stroke-opacity:1"
       d="m -155.37218,87.836076 c -1.07516,3.18e-4 -2.14685,0.06752 -2.82255,0.201343 -6.36989,1.261204 -11.66852,5.053587 -12.95951,11.800707 -0.18861,0.985724 -0.38897,3.116724 -0.31309,3.330124 0.0515,0.14474 0.28306,0.16161 1.89654,0.13704 l 1.83787,-0.0279 0.0249,-0.46295 c 0.0451,-0.8321 0.32225,-2.59686 0.51609,-3.286097 1.11145,-3.951873 3.99188,-5.469993 7.63215,-6.903308 2.47895,-0.975879 5.68098,-0.976112 8.15904,-3.01e-4 4.17464,1.643717 7.19607,5.514334 7.94037,10.171966 0.16288,1.01932 0.18662,4.28235 0.18662,7.68555 v 2.83078 h 3.90946 l -4.6e-4,-3.0719 c -4.7e-4,-4.51404 -0.0699,-7.96076 -0.62037,-10.02506 -1.6635,-6.238177 -6.59895,-11.030776 -12.54385,-12.180537 -0.68941,-0.13337 -1.76806,-0.199688 -2.84322,-0.199321 z" />
    <path
       style="fill:#ffffff;fill-opacity:1;stroke:#ffffff;stroke-width:1.5;stroke-linecap:butt;stroke-linejoin:miter;stroke-miterlimit:4;stroke-dasharray:none;stroke-opacity:1"
       d="m -175.79076,113.54369 v 55.33027"
       id="path945" />
    <path
       sodipodi:nodetypes="ccccsscccsscccscscssc"
       id="path897"
       d="m -173.31845,186.72837 -0.37842,-0.29767 v -8.15617 -8.15616 l 0.3315,-0.62767 c 0.21772,-0.41224 0.56827,-0.77431 1.02134,-1.05491 l 0.68985,-0.42725 h 5.50535 5.50534 l 0.68985,0.42725 c 0.45308,0.2806 0.80363,0.64267 1.02135,1.05491 l 0.3315,0.62767 v 8.15616 8.15617 l -0.37843,0.29767 c -0.2469,0.19421 -0.482,0.26604 -0.67647,0.20667 -0.16393,-0.05 -1.69195,-1.08243 -3.3956,-2.29419 l -3.09754,-2.20321 -3.09754,2.20321 c -1.70365,1.21176 -3.23167,2.24415 -3.3956,2.29419 -0.19448,0.0594 -0.42957,-0.0125 -0.67648,-0.20667 z"
       style="fill:#ffffff;stroke-width:0.999998" />
  </g>
</svg>
