<?xml version="1.0" encoding="UTF-8" standalone="no"?>
<svg
   xmlns:dc="http://purl.org/dc/elements/1.1/"
   xmlns:cc="http://creativecommons.org/ns#"
   xmlns:rdf="http://www.w3.org/1999/02/22-rdf-syntax-ns#"
   xmlns:svg="http://www.w3.org/2000/svg"
   xmlns="http://www.w3.org/2000/svg"
   xmlns:sodipodi="http://sodipodi.sourceforge.net/DTD/sodipodi-0.dtd"
   xmlns:inkscape="http://www.inkscape.org/namespaces/inkscape"
   sodipodi:docname="graph.svg"
   inkscape:version="1.0 (4035a4fb49, 2020-05-01)"
   id="svg2105"
   version="1.1"
   viewBox="0 0 184.98155 150.97623"
   height="150.97623mm"
   width="184.98155mm">
  <defs
     id="defs2099" />
  <sodipodi:namedview
     fit-margin-bottom="0"
     fit-margin-right="0"
     fit-margin-left="0"
     fit-margin-top="0"
     showgrid="false"
     inkscape:document-rotation="0"
     inkscape:current-layer="layer1"
     inkscape:document-units="mm"
     inkscape:cy="560"
     inkscape:cx="400"
     inkscape:zoom="0.35"
     inkscape:pageshadow="2"
     inkscape:pageopacity="0.0"
     borderopacity="1.0"
     bordercolor="#666666"
     pagecolor="#ffffff"
     id="base" />
  <metadata
     id="metadata2102">
    <rdf:RDF>
      <cc:Work
         rdf:about="">
        <dc:format>image/svg+xml</dc:format>
        <dc:type
           rdf:resource="http://purl.org/dc/dcmitype/StillImage" />
        <dc:title></dc:title>
      </cc:Work>
    </rdf:RDF>
  </metadata>
  <g
     transform="translate(-9.5627926,-52.267835)"
     id="layer1"
     inkscape:groupmode="layer"
     inkscape:label="Layer 1">
    <g
       style="stroke-width:0.57499"
       transform="matrix(0.4601531,0,0,0.4601531,-229.80885,-220.92506)"
       id="g266">
      <g
         style="stroke-width:0.57499"
         id="g252">
        <g
           style="stroke-width:0.57499"
           id="g186">
          <polygon
             style="stroke-width:0.57499"
             id="polygon184"
             points="563.3,593.7 563.3,896.7 922.2,896.7 922.2,899.7 560.3,899.7 560.3,593.7 " />
        </g>
        <g
           style="stroke-width:0.57499"
           id="g196">
          <path
             style="stroke-width:0.57499"
             id="path188"
             d="m 523.2,606 h -1.8 l 1.1,-4.9 c 0.1,-0.6 0.3,-1.2 0.4,-1.7 0,0 -0.2,0.1 -0.4,0.3 -0.2,0.2 -0.7,0.5 -1.5,1 l -0.8,-1.3 3.3,-2 h 1.5 z" />
          <path
             style="stroke-width:0.57499"
             id="path190"
             d="m 532.3,600.1 c 0,1.8 -0.3,3.3 -1,4.4 -0.7,1.1 -1.6,1.6 -2.8,1.6 -0.8,0 -1.4,-0.2 -1.8,-0.7 -0.4,-0.5 -0.6,-1.2 -0.6,-2.1 0,-1.2 0.2,-2.2 0.5,-3.1 0.3,-0.9 0.8,-1.6 1.3,-2.1 0.5,-0.5 1.2,-0.7 2,-0.7 1.6,-0.1 2.4,0.8 2.4,2.7 z m -2.5,-1.3 c -0.3,0 -0.6,0.2 -0.9,0.6 -0.3,0.4 -0.5,1 -0.7,1.8 -0.2,0.8 -0.3,1.5 -0.3,2.2 0,0.4 0.1,0.8 0.2,1 0.1,0.2 0.3,0.3 0.6,0.3 0.3,0 0.6,-0.2 0.9,-0.6 0.3,-0.4 0.5,-1 0.7,-1.8 0.2,-0.8 0.3,-1.5 0.3,-2.3 0,-0.4 -0.1,-0.8 -0.2,-0.9 -0.1,-0.1 -0.3,-0.3 -0.6,-0.3 z" />
          <path
             style="stroke-width:0.57499"
             id="path192"
             d="m 538.9,600.1 c 0,1.8 -0.3,3.3 -1,4.4 -0.7,1.1 -1.6,1.6 -2.8,1.6 -0.8,0 -1.4,-0.2 -1.8,-0.7 -0.4,-0.5 -0.6,-1.2 -0.6,-2.1 0,-1.2 0.2,-2.2 0.5,-3.1 0.3,-0.9 0.8,-1.6 1.3,-2.1 0.5,-0.5 1.2,-0.7 2,-0.7 1.6,-0.1 2.4,0.8 2.4,2.7 z m -2.5,-1.3 c -0.3,0 -0.6,0.2 -0.9,0.6 -0.3,0.4 -0.5,1 -0.7,1.8 -0.2,0.8 -0.3,1.5 -0.3,2.2 0,0.4 0.1,0.8 0.2,1 0.1,0.2 0.3,0.3 0.6,0.3 0.3,0 0.6,-0.2 0.9,-0.6 0.3,-0.4 0.5,-1 0.7,-1.8 0.2,-0.8 0.3,-1.5 0.3,-2.3 0,-0.4 -0.1,-0.8 -0.2,-0.9 -0.1,-0.1 -0.3,-0.3 -0.6,-0.3 z" />
          <path
             style="stroke-width:0.57499"
             id="path194"
             d="m 543.8,599.2 c 0,0.6 -0.1,1.3 -0.3,1.8 -0.2,0.5 -0.5,1 -0.9,1.3 -0.4,0.3 -0.8,0.4 -1.3,0.4 -0.5,0 -1,-0.2 -1.2,-0.5 -0.2,-0.3 -0.4,-0.8 -0.4,-1.4 0,-0.7 0.1,-1.3 0.3,-1.8 0.2,-0.5 0.5,-1 0.9,-1.3 0.4,-0.3 0.8,-0.4 1.3,-0.4 0.5,0 0.9,0.2 1.2,0.5 0.3,0.3 0.4,0.7 0.4,1.4 z m 4.3,-1.8 -6.3,8.6 h -1.4 l 6.4,-8.6 z m -6,1.1 c -0.2,0 -0.5,0.3 -0.6,0.8 -0.1,0.5 -0.3,1 -0.3,1.6 0,0.4 0.1,0.6 0.3,0.6 0.3,0 0.5,-0.3 0.7,-0.8 0.2,-0.5 0.3,-1 0.3,-1.6 -0.1,-0.4 -0.2,-0.6 -0.4,-0.6 z m 6.8,4 c 0,0.7 -0.1,1.3 -0.3,1.8 -0.2,0.5 -0.5,1 -0.9,1.3 -0.4,0.3 -0.8,0.4 -1.3,0.4 -0.6,0 -1,-0.2 -1.3,-0.5 -0.3,-0.3 -0.4,-0.7 -0.4,-1.3 0,-0.7 0.1,-1.3 0.3,-1.9 0.2,-0.6 0.5,-1 0.9,-1.3 0.4,-0.3 0.8,-0.4 1.3,-0.4 0.5,0 0.9,0.2 1.2,0.5 0.3,0.3 0.5,0.8 0.5,1.4 z m -1.8,-0.6 c -0.2,0 -0.3,0.1 -0.4,0.3 -0.1,0.2 -0.3,0.5 -0.3,0.9 0,0.4 -0.1,0.8 -0.1,1.1 0,0.3 0.1,0.6 0.3,0.6 0.2,0 0.3,-0.1 0.5,-0.3 0.2,-0.2 0.3,-0.5 0.3,-0.9 0,-0.4 0.1,-0.8 0.1,-1.2 -0.1,-0.3 -0.2,-0.5 -0.4,-0.5 z" />
        </g>
        <g
           style="stroke-width:0.57499"
           id="g204">
          <path
             style="stroke-width:0.57499"
             id="path198"
             d="m 529.5,746.7 c 0.7,0 1.3,0.2 1.7,0.6 0.4,0.4 0.6,1 0.6,1.7 0,0.7 -0.1,1.2 -0.4,1.7 -0.3,0.5 -0.7,0.9 -1.2,1.1 -0.5,0.2 -1.2,0.4 -1.9,0.4 -0.5,0 -0.9,0 -1.3,-0.1 -0.4,-0.1 -0.7,-0.2 -1,-0.3 v -1.6 c 0.7,0.4 1.4,0.6 2.1,0.6 0.6,0 1.1,-0.1 1.4,-0.4 0.3,-0.3 0.5,-0.7 0.5,-1.1 0,-0.4 -0.1,-0.6 -0.3,-0.8 -0.2,-0.2 -0.5,-0.3 -1,-0.3 -0.4,0 -0.8,0.1 -1.2,0.2 l -0.6,-0.5 1.2,-4.3 h 4.4 l -0.3,1.5 h -2.9 l -0.5,1.7 c 0.2,-0.1 0.4,-0.1 0.7,-0.1 z" />
          <path
             style="stroke-width:0.57499"
             id="path200"
             d="m 538.9,746.2 c 0,1.8 -0.3,3.3 -1,4.4 -0.7,1.1 -1.6,1.6 -2.8,1.6 -0.8,0 -1.4,-0.2 -1.8,-0.7 -0.4,-0.5 -0.6,-1.2 -0.6,-2.1 0,-1.2 0.2,-2.2 0.5,-3.1 0.3,-0.9 0.8,-1.6 1.3,-2.1 0.5,-0.5 1.2,-0.7 2,-0.7 1.6,-0.1 2.4,0.8 2.4,2.7 z m -2.5,-1.3 c -0.3,0 -0.6,0.2 -0.9,0.6 -0.3,0.4 -0.5,1 -0.7,1.8 -0.2,0.8 -0.3,1.5 -0.3,2.2 0,0.4 0.1,0.8 0.2,1 0.1,0.2 0.3,0.3 0.6,0.3 0.3,0 0.6,-0.2 0.9,-0.6 0.3,-0.4 0.5,-1 0.7,-1.8 0.2,-0.8 0.3,-1.5 0.3,-2.3 0,-0.4 -0.1,-0.8 -0.2,-0.9 -0.1,-0.1 -0.3,-0.3 -0.6,-0.3 z" />
          <path
             style="stroke-width:0.57499"
             id="path202"
             d="m 543.8,745.3 c 0,0.6 -0.1,1.3 -0.3,1.8 -0.2,0.5 -0.5,1 -0.9,1.3 -0.4,0.3 -0.8,0.4 -1.3,0.4 -0.5,0 -1,-0.2 -1.2,-0.5 -0.2,-0.3 -0.4,-0.8 -0.4,-1.4 0,-0.7 0.1,-1.3 0.3,-1.8 0.2,-0.5 0.5,-1 0.9,-1.3 0.4,-0.3 0.8,-0.4 1.3,-0.4 0.5,0 0.9,0.2 1.2,0.5 0.3,0.3 0.4,0.8 0.4,1.4 z m 4.3,-1.8 -6.3,8.6 h -1.4 l 6.4,-8.6 z m -6,1.1 c -0.2,0 -0.5,0.3 -0.6,0.8 -0.1,0.5 -0.3,1 -0.3,1.6 0,0.4 0.1,0.6 0.3,0.6 0.3,0 0.5,-0.3 0.7,-0.8 0.2,-0.5 0.3,-1 0.3,-1.6 -0.1,-0.4 -0.2,-0.6 -0.4,-0.6 z m 6.8,4.1 c 0,0.7 -0.1,1.3 -0.3,1.8 -0.2,0.5 -0.5,1 -0.9,1.3 -0.4,0.3 -0.8,0.4 -1.3,0.4 -0.6,0 -1,-0.2 -1.3,-0.5 -0.3,-0.3 -0.4,-0.7 -0.4,-1.3 0,-0.7 0.1,-1.3 0.3,-1.9 0.2,-0.6 0.5,-1 0.9,-1.3 0.4,-0.3 0.8,-0.4 1.3,-0.4 0.5,0 0.9,0.2 1.2,0.5 0.3,0.3 0.5,0.8 0.5,1.4 z m -1.8,-0.6 c -0.2,0 -0.3,0.1 -0.4,0.3 -0.1,0.2 -0.3,0.5 -0.3,0.9 0,0.4 -0.1,0.8 -0.1,1.1 0,0.3 0.1,0.6 0.3,0.6 0.2,0 0.3,-0.1 0.5,-0.3 0.2,-0.2 0.3,-0.5 0.3,-0.9 0,-0.4 0.1,-0.8 0.1,-1.2 -0.1,-0.3 -0.2,-0.5 -0.4,-0.5 z" />
        </g>
        <g
           style="stroke-width:0.57499"
           id="g210">
          <path
             style="stroke-width:0.57499"
             id="path206"
             d="m 538.9,892.3 c 0,1.8 -0.3,3.3 -1,4.4 -0.7,1.1 -1.6,1.6 -2.8,1.6 -0.8,0 -1.4,-0.2 -1.8,-0.7 -0.4,-0.5 -0.6,-1.2 -0.6,-2.1 0,-1.2 0.2,-2.2 0.5,-3.1 0.3,-0.9 0.8,-1.6 1.3,-2.1 0.5,-0.5 1.2,-0.7 2,-0.7 1.6,-0.1 2.4,0.8 2.4,2.7 z m -2.5,-1.3 c -0.3,0 -0.6,0.2 -0.9,0.6 -0.3,0.4 -0.5,1 -0.7,1.8 -0.2,0.8 -0.3,1.5 -0.3,2.2 0,0.4 0.1,0.8 0.2,1 0.1,0.2 0.3,0.3 0.6,0.3 0.3,0 0.6,-0.2 0.9,-0.6 0.3,-0.4 0.5,-1 0.7,-1.8 0.2,-0.8 0.3,-1.5 0.3,-2.3 0,-0.4 -0.1,-0.8 -0.2,-0.9 -0.1,-0.1 -0.3,-0.3 -0.6,-0.3 z" />
          <path
             style="stroke-width:0.57499"
             id="path208"
             d="m 543.8,891.4 c 0,0.6 -0.1,1.3 -0.3,1.8 -0.2,0.5 -0.5,1 -0.9,1.3 -0.4,0.3 -0.8,0.4 -1.3,0.4 -0.5,0 -1,-0.2 -1.2,-0.5 -0.2,-0.3 -0.4,-0.8 -0.4,-1.4 0,-0.7 0.1,-1.3 0.3,-1.8 0.2,-0.5 0.5,-1 0.9,-1.3 0.4,-0.3 0.8,-0.4 1.3,-0.4 0.5,0 0.9,0.2 1.2,0.5 0.3,0.3 0.4,0.8 0.4,1.4 z m 4.3,-1.7 -6.3,8.6 h -1.4 l 6.4,-8.6 z m -6,1.1 c -0.2,0 -0.5,0.3 -0.6,0.8 -0.1,0.5 -0.3,1 -0.3,1.6 0,0.4 0.1,0.6 0.3,0.6 0.3,0 0.5,-0.3 0.7,-0.8 0.2,-0.5 0.3,-1 0.3,-1.6 -0.1,-0.5 -0.2,-0.6 -0.4,-0.6 z m 6.8,4 c 0,0.7 -0.1,1.3 -0.3,1.8 -0.2,0.5 -0.5,1 -0.9,1.3 -0.4,0.3 -0.8,0.4 -1.3,0.4 -0.6,0 -1,-0.2 -1.3,-0.5 -0.3,-0.3 -0.4,-0.7 -0.4,-1.3 0,-0.7 0.1,-1.3 0.3,-1.9 0.2,-0.6 0.5,-1 0.9,-1.3 0.4,-0.3 0.8,-0.4 1.3,-0.4 0.5,0 0.9,0.2 1.2,0.5 0.3,0.3 0.5,0.8 0.5,1.4 z m -1.8,-0.6 c -0.2,0 -0.3,0.1 -0.4,0.3 -0.1,0.2 -0.3,0.5 -0.3,0.9 0,0.4 -0.1,0.8 -0.1,1.1 0,0.3 0.1,0.6 0.3,0.6 0.2,0 0.3,-0.1 0.5,-0.3 0.2,-0.2 0.3,-0.5 0.3,-0.9 0,-0.4 0.1,-0.8 0.1,-1.2 -0.1,-0.3 -0.2,-0.5 -0.4,-0.5 z" />
        </g>
        <g
           style="stroke-width:0.57499"
           id="g220">
          <path
             style="stroke-width:0.57499"
             id="path212"
             d="m 581.8,921.7 h -5.6 l 0.3,-1.2 2.8,-2.5 c 0.7,-0.6 1.2,-1.1 1.5,-1.5 0.3,-0.4 0.4,-0.7 0.4,-1.1 0,-0.3 -0.1,-0.5 -0.2,-0.7 -0.1,-0.2 -0.4,-0.2 -0.6,-0.2 -0.3,0 -0.5,0.1 -0.8,0.2 -0.3,0.1 -0.6,0.4 -1,0.7 l -0.9,-1.2 c 0.5,-0.4 1,-0.7 1.5,-0.9 0.5,-0.2 1,-0.3 1.5,-0.3 0.7,0 1.3,0.2 1.8,0.6 0.5,0.4 0.7,0.9 0.7,1.5 0,0.4 -0.1,0.8 -0.2,1.2 -0.1,0.4 -0.4,0.7 -0.7,1.1 -0.3,0.4 -0.8,0.8 -1.6,1.4 l -1.6,1.3 v 0.1 h 3.3 z" />
          <path
             style="stroke-width:0.57499"
             id="path214"
             d="m 589.5,915.8 c 0,1.8 -0.3,3.3 -1,4.4 -0.7,1.1 -1.6,1.6 -2.8,1.6 -0.8,0 -1.4,-0.2 -1.8,-0.7 -0.4,-0.5 -0.6,-1.2 -0.6,-2.1 0,-1.2 0.2,-2.2 0.5,-3.1 0.3,-0.9 0.8,-1.6 1.3,-2.1 0.5,-0.5 1.2,-0.7 2,-0.7 1.6,-0.1 2.4,0.8 2.4,2.7 z m -2.5,-1.3 c -0.3,0 -0.6,0.2 -0.9,0.6 -0.3,0.4 -0.5,1 -0.7,1.8 -0.2,0.8 -0.3,1.5 -0.3,2.2 0,0.4 0.1,0.8 0.2,1 0.1,0.2 0.3,0.3 0.6,0.3 0.3,0 0.6,-0.2 0.9,-0.6 0.3,-0.4 0.5,-1 0.7,-1.8 0.2,-0.8 0.3,-1.5 0.3,-2.3 0,-0.4 -0.1,-0.8 -0.2,-0.9 -0.1,-0.1 -0.3,-0.3 -0.6,-0.3 z" />
          <path
             style="stroke-width:0.57499"
             id="path216"
             d="m 593.7,921.7 h -1.8 l 1.1,-4.9 c 0.1,-0.6 0.3,-1.2 0.4,-1.7 0,0 -0.2,0.1 -0.4,0.3 -0.2,0.2 -0.7,0.5 -1.5,1 l -0.8,-1.3 3.3,-2 h 1.5 z" />
          <path
             style="stroke-width:0.57499"
             id="path218"
             d="m 602.7,915 c 0,0.6 -0.2,1.1 -0.6,1.5 -0.4,0.4 -0.9,0.7 -1.5,0.8 v 0 c 0.5,0.1 0.9,0.3 1.2,0.6 0.3,0.3 0.4,0.7 0.4,1.2 0,0.5 -0.1,1 -0.4,1.4 -0.3,0.4 -0.7,0.7 -1.2,1 -0.5,0.3 -1.2,0.3 -1.9,0.3 -0.9,0 -1.7,-0.2 -2.3,-0.5 v -1.6 c 0.3,0.2 0.7,0.3 1.1,0.4 0.4,0.1 0.8,0.1 1.1,0.1 0.6,0 1.1,-0.1 1.4,-0.4 0.3,-0.3 0.5,-0.6 0.5,-1 0,-0.7 -0.5,-1 -1.5,-1 h -0.8 l 0.3,-1.3 h 0.4 c 0.7,0 1.2,-0.1 1.5,-0.4 0.3,-0.3 0.6,-0.6 0.6,-1 0,-0.3 -0.1,-0.5 -0.3,-0.6 -0.2,-0.1 -0.4,-0.2 -0.7,-0.2 -0.5,0 -1.1,0.2 -1.7,0.6 l -0.7,-1.2 c 0.5,-0.3 0.9,-0.5 1.4,-0.7 0.5,-0.2 0.9,-0.2 1.4,-0.2 0.7,0 1.3,0.2 1.7,0.5 0.4,0.3 0.6,1.1 0.6,1.7 z" />
        </g>
        <g
           style="stroke-width:0.57499"
           id="g230">
          <path
             style="stroke-width:0.57499"
             id="path222"
             d="m 685.1,921.7 h -5.6 l 0.3,-1.2 2.8,-2.5 c 0.7,-0.6 1.2,-1.1 1.5,-1.5 0.3,-0.4 0.4,-0.7 0.4,-1.1 0,-0.3 -0.1,-0.5 -0.2,-0.7 -0.1,-0.2 -0.4,-0.2 -0.6,-0.2 -0.3,0 -0.5,0.1 -0.8,0.2 -0.3,0.1 -0.6,0.4 -1,0.7 l -0.9,-1.2 c 0.5,-0.4 1,-0.7 1.5,-0.9 0.5,-0.2 1,-0.3 1.5,-0.3 0.7,0 1.3,0.2 1.8,0.6 0.5,0.4 0.7,0.9 0.7,1.5 0,0.4 -0.1,0.8 -0.2,1.2 -0.1,0.4 -0.4,0.7 -0.7,1.1 -0.3,0.4 -0.8,0.8 -1.6,1.4 l -1.6,1.3 v 0.1 h 3.3 z" />
          <path
             style="stroke-width:0.57499"
             id="path224"
             d="m 692.9,915.8 c 0,1.8 -0.3,3.3 -1,4.4 -0.7,1.1 -1.6,1.6 -2.8,1.6 -0.8,0 -1.4,-0.2 -1.8,-0.7 -0.4,-0.5 -0.6,-1.2 -0.6,-2.1 0,-1.2 0.2,-2.2 0.5,-3.1 0.3,-0.9 0.8,-1.6 1.3,-2.1 0.5,-0.5 1.2,-0.7 2,-0.7 1.6,-0.1 2.4,0.8 2.4,2.7 z m -2.5,-1.3 c -0.3,0 -0.6,0.2 -0.9,0.6 -0.3,0.4 -0.5,1 -0.7,1.8 -0.2,0.8 -0.3,1.5 -0.3,2.2 0,0.4 0.1,0.8 0.2,1 0.1,0.2 0.3,0.3 0.6,0.3 0.3,0 0.6,-0.2 0.9,-0.6 0.3,-0.4 0.5,-1 0.7,-1.8 0.2,-0.8 0.3,-1.5 0.3,-2.3 0,-0.4 -0.1,-0.8 -0.2,-0.9 -0.1,-0.1 -0.4,-0.3 -0.6,-0.3 z" />
          <path
             style="stroke-width:0.57499"
             id="path226"
             d="m 697,921.7 h -1.8 l 1.1,-4.9 c 0.1,-0.6 0.3,-1.2 0.4,-1.7 0,0 -0.2,0.1 -0.4,0.3 -0.2,0.2 -0.7,0.5 -1.5,1 l -0.8,-1.3 3.3,-2 h 1.5 z" />
          <path
             style="stroke-width:0.57499"
             id="path228"
             d="m 705.6,920 h -1 l -0.4,1.8 h -1.7 l 0.4,-1.8 h -3.5 l 0.3,-1.4 4.5,-5.4 h 1.8 l -1.1,5.4 h 1 z m -2.4,-1.5 0.3,-1.5 c 0,-0.2 0.1,-0.5 0.2,-1 0.1,-0.5 0.2,-0.7 0.2,-0.8 v 0 c -0.1,0.2 -0.4,0.6 -0.8,1.1 l -1.8,2.2 z" />
        </g>
        <g
           style="stroke-width:0.57499"
           id="g240">
          <path
             style="stroke-width:0.57499"
             id="path232"
             d="m 788.4,921.7 h -5.6 l 0.3,-1.2 2.8,-2.5 c 0.7,-0.6 1.2,-1.1 1.5,-1.5 0.3,-0.4 0.4,-0.7 0.4,-1.1 0,-0.3 -0.1,-0.5 -0.2,-0.7 -0.1,-0.2 -0.4,-0.2 -0.6,-0.2 -0.3,0 -0.5,0.1 -0.8,0.2 -0.3,0.1 -0.6,0.4 -1,0.7 l -0.9,-1.2 c 0.5,-0.4 1,-0.7 1.5,-0.9 0.5,-0.2 1,-0.3 1.5,-0.3 0.7,0 1.3,0.2 1.8,0.6 0.5,0.4 0.7,0.9 0.7,1.5 0,0.4 -0.1,0.8 -0.2,1.2 -0.1,0.4 -0.4,0.7 -0.7,1.1 -0.3,0.4 -0.8,0.8 -1.6,1.4 l -1.6,1.3 v 0.1 h 3.3 z" />
          <path
             style="stroke-width:0.57499"
             id="path234"
             d="m 796.2,915.8 c 0,1.8 -0.3,3.3 -1,4.4 -0.7,1.1 -1.6,1.6 -2.8,1.6 -0.8,0 -1.4,-0.2 -1.8,-0.7 -0.4,-0.5 -0.6,-1.2 -0.6,-2.1 0,-1.2 0.2,-2.2 0.5,-3.1 0.3,-0.9 0.8,-1.6 1.3,-2.1 0.5,-0.5 1.2,-0.7 2,-0.7 1.6,-0.1 2.4,0.8 2.4,2.7 z m -2.5,-1.3 c -0.3,0 -0.6,0.2 -0.9,0.6 -0.3,0.4 -0.5,1 -0.7,1.8 -0.2,0.8 -0.3,1.5 -0.3,2.2 0,0.4 0.1,0.8 0.2,1 0.1,0.2 0.3,0.3 0.6,0.3 0.3,0 0.6,-0.2 0.9,-0.6 0.3,-0.4 0.5,-1 0.7,-1.8 0.2,-0.8 0.3,-1.5 0.3,-2.3 0,-0.4 -0.1,-0.8 -0.2,-0.9 -0.1,-0.1 -0.4,-0.3 -0.6,-0.3 z" />
          <path
             style="stroke-width:0.57499"
             id="path236"
             d="m 800.3,921.7 h -1.8 l 1.1,-4.9 c 0.1,-0.6 0.3,-1.2 0.4,-1.7 0,0 -0.2,0.1 -0.4,0.3 -0.2,0.2 -0.7,0.5 -1.5,1 l -0.8,-1.3 3.3,-2 h 1.5 z" />
          <path
             style="stroke-width:0.57499"
             id="path238"
             d="m 806.6,916.3 c 0.7,0 1.3,0.2 1.7,0.6 0.4,0.4 0.6,1 0.6,1.7 0,0.7 -0.1,1.2 -0.4,1.7 -0.3,0.5 -0.7,0.9 -1.2,1.1 -0.5,0.2 -1.2,0.4 -1.9,0.4 -0.5,0 -0.9,0 -1.3,-0.1 -0.4,-0.1 -0.7,-0.2 -1,-0.3 v -1.6 c 0.7,0.4 1.4,0.6 2.1,0.6 0.6,0 1.1,-0.1 1.4,-0.4 0.3,-0.3 0.5,-0.7 0.5,-1.1 0,-0.4 -0.1,-0.6 -0.3,-0.8 -0.2,-0.2 -0.5,-0.3 -1,-0.3 -0.4,0 -0.8,0.1 -1.2,0.2 l -0.6,-0.5 1.2,-4.3 h 4.4 l -0.3,1.5 h -2.9 l -0.5,1.7 c 0.2,0 0.4,-0.1 0.7,-0.1 z" />
        </g>
        <g
           style="stroke-width:0.57499"
           id="g250">
          <path
             style="stroke-width:0.57499"
             id="path242"
             d="m 891.8,921.7 h -5.6 l 0.3,-1.2 2.8,-2.5 c 0.7,-0.6 1.2,-1.1 1.5,-1.5 0.3,-0.4 0.4,-0.7 0.4,-1.1 0,-0.3 -0.1,-0.5 -0.2,-0.7 -0.1,-0.2 -0.4,-0.2 -0.6,-0.2 -0.3,0 -0.5,0.1 -0.8,0.2 -0.3,0.1 -0.6,0.4 -1,0.7 l -0.9,-1.2 c 0.5,-0.4 1,-0.7 1.5,-0.9 0.5,-0.2 1,-0.3 1.5,-0.3 0.7,0 1.3,0.2 1.8,0.6 0.5,0.4 0.7,0.9 0.7,1.5 0,0.4 -0.1,0.8 -0.2,1.2 -0.1,0.4 -0.4,0.7 -0.7,1.1 -0.3,0.4 -0.8,0.8 -1.6,1.4 l -1.6,1.3 v 0.1 h 3.3 z" />
          <path
             style="stroke-width:0.57499"
             id="path244"
             d="m 899.5,915.8 c 0,1.8 -0.3,3.3 -1,4.4 -0.7,1.1 -1.6,1.6 -2.8,1.6 -0.8,0 -1.4,-0.2 -1.8,-0.7 -0.4,-0.5 -0.6,-1.2 -0.6,-2.1 0,-1.2 0.2,-2.2 0.5,-3.1 0.3,-0.9 0.8,-1.6 1.3,-2.1 0.5,-0.5 1.2,-0.7 2,-0.7 1.6,-0.1 2.4,0.8 2.4,2.7 z m -2.5,-1.3 c -0.3,0 -0.6,0.2 -0.9,0.6 -0.3,0.4 -0.5,1 -0.7,1.8 -0.2,0.8 -0.3,1.5 -0.3,2.2 0,0.4 0.1,0.8 0.2,1 0.1,0.2 0.3,0.3 0.6,0.3 0.3,0 0.6,-0.2 0.9,-0.6 0.3,-0.4 0.5,-1 0.7,-1.8 0.2,-0.8 0.3,-1.5 0.3,-2.3 0,-0.4 -0.1,-0.8 -0.2,-0.9 -0.1,-0.1 -0.3,-0.3 -0.6,-0.3 z" />
          <path
             style="stroke-width:0.57499"
             id="path246"
             d="m 903.7,921.7 h -1.8 l 1.1,-4.9 c 0.1,-0.6 0.3,-1.2 0.4,-1.7 0,0 -0.2,0.1 -0.4,0.3 -0.2,0.2 -0.7,0.5 -1.5,1 l -0.8,-1.3 3.3,-2 h 1.5 z" />
          <path
             style="stroke-width:0.57499"
             id="path248"
             d="m 906.8,919 c 0,-0.8 0.1,-1.6 0.4,-2.3 0.3,-0.7 0.6,-1.4 1,-2 0.4,-0.6 0.9,-1 1.5,-1.3 0.6,-0.3 1.3,-0.4 2.1,-0.4 0.5,0 0.9,0.1 1.3,0.2 l -0.3,1.4 c -0.3,-0.1 -0.7,-0.1 -1.1,-0.1 -0.8,0 -1.4,0.2 -1.8,0.6 -0.4,0.4 -0.8,1.1 -1.1,2 v 0 c 0.4,-0.6 1.1,-1 1.8,-1 0.6,0 1.1,0.2 1.4,0.6 0.3,0.4 0.5,0.9 0.5,1.6 0,0.7 -0.1,1.3 -0.4,1.8 -0.3,0.5 -0.6,1 -1.1,1.3 -0.5,0.3 -1,0.4 -1.6,0.4 -0.8,0 -1.5,-0.2 -1.9,-0.7 -0.4,-0.5 -0.7,-1.2 -0.7,-2.1 z m 2.5,1.4 c 0.4,0 0.7,-0.2 0.9,-0.6 0.2,-0.4 0.4,-0.8 0.4,-1.4 0,-0.3 -0.1,-0.5 -0.2,-0.7 -0.1,-0.2 -0.3,-0.2 -0.6,-0.2 -0.2,0 -0.5,0.1 -0.7,0.2 -0.2,0.1 -0.4,0.3 -0.5,0.6 -0.1,0.3 -0.2,0.5 -0.2,0.9 0,0.4 0.1,0.6 0.2,0.8 0.1,0.2 0.5,0.4 0.7,0.4 z" />
        </g>
      </g>
      <g
         style="stroke-width:0.57499"
         id="g256">
        <path
           style="stroke-width:0.330613"
           id="path254"
           d="m 589.5,843.1 c -0.9,0 -1.8,-0.5 -2.2,-1.4 -0.6,-1.2 -0.1,-2.7 1.1,-3.3 l 125.3,-62 c 0.6,-0.3 1.2,-0.3 1.8,-0.1 l 61.9,19.1 121.3,-37.1 c 1.3,-0.4 2.7,0.3 3.1,1.7 0.4,1.3 -0.3,2.7 -1.7,3.1 l -122,37.3 c -0.5,0.1 -1,0.1 -1.5,0 l -61.7,-19 -124.4,61.6 c -0.2,0 -0.6,0.1 -1,0.1 z"
           fill="#e58033" />
      </g>
      <g
         style="stroke-width:0.57499"
         id="g260">
        <path
           style="stroke-width:0.330613"
           id="path258"
           d="m 589.5,831.1 c -1.3,0 -2.4,-1 -2.5,-2.3 -0.1,-1.4 0.9,-2.6 2.3,-2.7 l 85.9,-6.6 102.1,-82.8 c 0.4,-0.3 0.8,-0.5 1.3,-0.5 L 859,727.5 897.7,685 c 0.9,-1 2.5,-1.1 3.5,-0.2 1,0.9 1.1,2.5 0.2,3.5 L 862,731.5 c -0.4,0.5 -1,0.7 -1.6,0.8 l -80.6,8.7 -102.1,82.8 c -0.4,0.3 -0.9,0.5 -1.4,0.6 l -86.7,6.7 c 0.1,0 0,0 -0.1,0 z"
           fill="#3ec4c3" />
      </g>
      <g
         style="stroke-width:0.57499"
         id="g264">
        <path
           style="stroke-width:0.330613"
           id="path262"
           d="m 651.5,856.4 c -0.1,0 -0.2,0 -0.3,0 l -60.8,-7.3 c -1.4,-0.2 -2.3,-1.4 -2.2,-2.8 0.2,-1.4 1.4,-2.3 2.8,-2.2 l 59.9,7.2 130.5,-82.9 c 0.5,-0.3 1.1,-0.5 1.8,-0.4 l 122.7,20.7 c 1.4,0.2 2.3,1.5 2,2.9 -0.2,1.4 -1.5,2.3 -2.9,2 L 783.3,773.1 652.9,856 c -0.5,0.3 -0.9,0.4 -1.4,0.4 z"
           fill="#97c967" />
      </g>
    </g>
  </g>
</svg>
